# author: headus 3D tools
#  using: ply2obj v1.8
#   from: uvlayout v2.09.03
mtllib seven_out.mtl
# 136 vertices
v -5.4460000 3.6140000 1.1830000
v -5.3782858 3.6235431 1.1830000
v -5.2620081 3.6209601 1.1830000
v -5.0478410 3.6403171 1.1830000
v -4.8877811 3.6345571 1.1830000
v -4.6294731 3.6532701 1.1830000
v -4.6333689 3.5753901 1.1830000
v -4.7763518 3.3043692 1.1830000
v -4.8473510 3.1260051 1.1830000
v -4.9521431 2.9608161 1.1830000
v -5.0382781 2.7877220 1.1830000
v -5.1335172 2.6183602 1.1830000
v -5.2227430 2.4463970 1.1830000
v -5.3144068 2.2754070 1.1830000
v -5.4039430 2.1034851 1.1830000
v -5.4638580 1.9888890 1.1830000
v -5.4936050 1.9315180 1.1830000
v -5.4464849 3.6218210 1.1797541
v -5.3781399 3.6313780 1.1797541
v -5.2616720 3.6287891 1.1797541
v -5.0474500 3.6481432 1.1797541
v -4.8872761 3.6423761 1.1797541
v -4.6236080 3.6584672 1.1797541
v -4.6259651 3.5728261 1.1797541
v -4.7695102 3.3005502 1.1797541
v -4.8406658 3.1219150 1.1797541
v -4.9456329 2.9564542 1.1797541
v -5.0316548 2.7835342 1.1797541
v -5.1269302 2.6141161 1.1797541
v -5.2161130 2.4422191 1.1797541
v -5.3077812 2.2712242 1.1797541
v -5.3972949 2.0993369 1.1797541
v -5.4572071 1.9847461 1.1797541
v -5.4869460 1.9273880 1.1797541
v -5.4469708 3.6296431 1.1830000
v -5.3779940 3.6392120 1.1830000
v -5.2613339 3.6366180 1.1830000
v -5.0470590 3.6559700 1.1830000
v -4.8867711 3.6501959 1.1830000
v -4.6177439 3.6636652 1.1830000
v -4.6185598 3.5702631 1.1830000
v -4.7626671 3.2967312 1.1830000
v -4.8339819 3.1178252 1.1830000
v -4.9391240 2.9520921 1.1830000
v -5.0250320 2.7793461 1.1830000
v -5.1203431 2.6098720 1.1830000
v -5.2094831 2.4380420 1.1830000
v -5.3011550 2.2670411 1.1830000
v -5.3906478 2.0951880 1.1830000
v -5.4505547 1.9806040 1.1830000
v -5.4802869 1.9232570 1.1830000
v -5.4471720 3.6328820 1.1908359
v -5.3779339 3.6424581 1.1908359
v -5.2611951 3.6398610 1.1908359
v -5.0468969 3.6592120 1.1908359
v -4.8865619 3.6534361 1.1908359
v -4.6153139 3.6658181 1.1908359
v -4.6154918 3.5692012 1.1908359
v -4.7598328 3.2951502 1.1908359
v -4.8312139 3.1161310 1.1908359
v -4.9364280 2.9502852 1.1908359
v -5.0222878 2.7776112 1.1908359
v -5.1176142 2.6081142 1.1908359
v -5.2067370 2.4363109 1.1908359
v -5.2984099 2.2653090 1.1908359
v -5.3878941 2.0934700 1.1908359
v -5.4478000 1.9788882 1.1908359
v -5.4775289 1.9215462 1.1908359
v -5.4469708 3.6296431 1.1986719
v -5.3779940 3.6392120 1.1986719
v -5.2613339 3.6366180 1.1986719
v -5.0470590 3.6559700 1.1986719
v -4.8867711 3.6501959 1.1986719
v -4.6177439 3.6636652 1.1986719
v -4.6185598 3.5702631 1.1986719
v -4.7626671 3.2967312 1.1986719
v -4.8339819 3.1178252 1.1986719
v -4.9391240 2.9520921 1.1986719
v -5.0250320 2.7793461 1.1986719
v -5.1203431 2.6098720 1.1986719
v -5.2094831 2.4380420 1.1986719
v -5.3011550 2.2670411 1.1986719
v -5.3906478 2.0951880 1.1986719
v -5.4505547 1.9806040 1.1986719
v -5.4802869 1.9232570 1.1986719
v -5.4464849 3.6218210 1.2019180
v -5.3781399 3.6313780 1.2019180
v -5.2616720 3.6287891 1.2019180
v -5.0474500 3.6481432 1.2019180
v -4.8872761 3.6423761 1.2019180
v -4.6236080 3.6584672 1.2019180
v -4.6259651 3.5728261 1.2019180
v -4.7695102 3.3005502 1.2019180
v -4.8406658 3.1219150 1.2019180
v -4.9456329 2.9564542 1.2019180
v -5.0316548 2.7835342 1.2019180
v -5.1269302 2.6141161 1.2019180
v -5.2161130 2.4422191 1.2019180
v -5.3077812 2.2712242 1.2019180
v -5.3972949 2.0993369 1.2019180
v -5.4572071 1.9847461 1.2019180
v -5.4869460 1.9273880 1.2019180
v -5.4460000 3.6140000 1.1986719
v -5.3782858 3.6235431 1.1986719
v -5.2620081 3.6209601 1.1986719
v -5.0478410 3.6403171 1.1986719
v -4.8877811 3.6345571 1.1986719
v -4.6294731 3.6532701 1.1986719
v -4.6333689 3.5753901 1.1986719
v -4.7763518 3.3043692 1.1986719
v -4.8473510 3.1260051 1.1986719
v -4.9521431 2.9608161 1.1986719
v -5.0382781 2.7877220 1.1986719
v -5.1335172 2.6183602 1.1986719
v -5.2227430 2.4463970 1.1986719
v -5.3144068 2.2754070 1.1986719
v -5.4039430 2.1034851 1.1986719
v -5.4638580 1.9888890 1.1986719
v -5.4936050 1.9315180 1.1986719
v -5.4457988 3.6107611 1.1908359
v -5.3783459 3.6202971 1.1908359
v -5.2621478 3.6177181 1.1908359
v -5.0480031 3.6370751 1.1908359
v -4.8879899 3.6313179 1.1908359
v -4.6319021 3.6511170 1.1908359
v -4.6364368 3.5764522 1.1908359
v -4.7791862 3.3059511 1.1908359
v -4.8501190 3.1276991 1.1908359
v -4.9548392 2.9626230 1.1908359
v -5.0410208 2.7894570 1.1908359
v -5.1362461 2.6201180 1.1908359
v -5.2254891 2.4481271 1.1908359
v -5.3171521 2.2771389 1.1908359
v -5.4066972 2.1052030 1.1908359
v -5.4666141 1.9906039 1.1908359
v -5.4963630 1.9332302 1.1908359
# 136 normals
vn 0.100256 -0.711347 -0.695508
vn 0.002503 -0.016755 -0.999847
vn -0.001892 0.015565 -0.999847
vn 0.026399 -0.698743 -0.714857
vn 0.001862 -0.019075 -0.999786
vn 0.036349 -0.717298 -0.695660
vn -0.001740 0.018159 -0.999817
vn 0.025362 -0.698895 -0.714735
vn 0.002808 -0.015504 -0.999847
vn 0.023530 -0.757370 -0.652475
vn 0.048068 0.196271 -0.979277
vn -0.135232 -0.578099 -0.804645
vn 0.048190 -0.013856 -0.998657
vn -0.637978 0.268235 -0.721785
vn -0.007477 0.002472 -0.999939
vn -0.644143 0.306659 -0.700696
vn 0.021089 -0.008790 -0.999725
vn -0.619819 0.317189 -0.717634
vn -0.011262 0.005188 -0.999908
vn -0.621773 0.350913 -0.699994
vn 0.005493 -0.002319 -0.999969
vn -0.623390 0.330129 -0.708692
vn -0.003662 0.001587 -0.999969
vn -0.624672 0.337576 -0.704053
vn 0.001404 -0.000549 -0.999969
vn -0.625679 0.330037 -0.706739
vn -0.001282 0.000519 -0.999969
vn -0.626717 0.331105 -0.705304
vn 0.003418 -0.001709 -0.999969
vn -0.626167 0.326558 -0.707898
vn 0.005097 -0.002655 -0.999969
vn -0.625282 0.326039 -0.708967
vn 0.016633 -0.008545 -0.999817
vn -0.620430 0.321644 -0.715132
vn -0.096411 0.694897 -0.712568
vn -0.026827 0.714399 -0.699200
vn -0.035342 0.698437 -0.714765
vn -0.025972 0.716871 -0.696606
vn -0.013368 0.745590 -0.666178
vn 0.231429 0.764237 -0.601782
vn 0.687603 -0.271287 -0.673381
vn 0.637032 -0.303333 -0.708570
vn 0.639993 -0.327687 -0.694958
vn 0.611091 -0.344839 -0.712446
vn 0.628731 -0.332937 -0.702710
vn 0.621071 -0.335653 -0.708204
vn 0.627052 -0.330739 -0.705121
vn 0.625374 -0.330403 -0.706800
vn 0.629586 -0.328328 -0.703961
vn 0.630501 -0.328694 -0.703137
vn 0.636971 -0.330190 -0.696454
vn -0.137185 0.990478 0.000000
vn -0.036104 0.999329 0.000000
vn -0.051486 0.998596 0.000000
vn -0.035006 0.999359 0.000000
vn -0.017243 0.999847 0.000000
vn 0.302081 0.953183 0.000000
vn 0.929470 -0.368888 0.000000
vn 0.903192 -0.428981 0.000000
vn 0.889214 -0.457273 0.000000
vn 0.871238 -0.490631 0.000000
vn 0.883446 -0.468382 0.000000
vn 0.879814 -0.475157 0.000000
vn 0.884453 -0.466612 0.000000
vn 0.884209 -0.467008 0.000000
vn 0.886620 -0.462461 0.000000
vn 0.886712 -0.462217 0.000000
vn 0.887749 -0.460203 0.000000
vn -0.096411 0.694897 0.712568
vn -0.026827 0.714399 0.699200
vn -0.035342 0.698437 0.714765
vn -0.025972 0.716871 0.696606
vn -0.013368 0.745590 0.666178
vn 0.231429 0.764237 0.601782
vn 0.687603 -0.271287 0.673411
vn 0.637032 -0.303333 0.708570
vn 0.640023 -0.327687 0.694958
vn 0.611091 -0.344839 0.712446
vn 0.628731 -0.332937 0.702710
vn 0.621101 -0.335653 0.708204
vn 0.627052 -0.330739 0.705121
vn 0.625374 -0.330403 0.706800
vn 0.629586 -0.328328 0.703961
vn 0.630501 -0.328694 0.703137
vn 0.636971 -0.330190 0.696484
vn 0.002503 -0.016755 0.999847
vn -0.001892 0.015565 0.999847
vn 0.001862 -0.019075 0.999786
vn -0.001740 0.018159 0.999817
vn 0.002808 -0.015504 0.999847
vn 0.048068 0.196271 0.979277
vn 0.048190 -0.013856 0.998657
vn -0.007508 0.002472 0.999939
vn 0.021089 -0.008790 0.999725
vn -0.011262 0.005188 0.999908
vn 0.005493 -0.002319 0.999969
vn -0.003662 0.001587 0.999969
vn 0.001404 -0.000549 0.999969
vn -0.001282 0.000519 0.999969
vn 0.003388 -0.001709 0.999969
vn 0.005066 -0.002655 0.999969
vn 0.016633 -0.008545 0.999817
vn 0.100256 -0.711347 0.695508
vn 0.026399 -0.698743 0.714857
vn 0.036349 -0.717298 0.695660
vn 0.025362 -0.698895 0.714735
vn 0.023530 -0.757370 0.652475
vn -0.135232 -0.578099 0.804645
vn -0.637978 0.268235 0.721785
vn -0.644143 0.306629 0.700696
vn -0.619819 0.317189 0.717634
vn -0.621773 0.350913 0.700024
vn -0.623360 0.330129 0.708692
vn -0.624641 0.337576 0.704053
vn -0.625679 0.330037 0.706739
vn -0.626717 0.331105 0.705304
vn -0.626167 0.326558 0.707898
vn -0.625252 0.326039 0.708967
vn -0.620430 0.321644 0.715132
vn 0.139687 -0.990173 0.000000
vn 0.039156 -0.999206 0.000000
vn 0.049655 -0.998688 0.000000
vn 0.037447 -0.999268 0.000000
vn 0.031221 -0.999512 0.000000
vn -0.214369 -0.976653 0.000000
vn -0.921443 0.388482 0.000000
vn -0.902368 0.430690 0.000000
vn -0.890954 0.453946 0.000000
vn -0.870384 0.492279 0.000000
vn -0.883904 0.467619 0.000000
vn -0.879509 0.475645 0.000000
vn -0.884545 0.466398 0.000000
vn -0.884087 0.467222 0.000000
vn -0.886620 0.462461 0.000000
vn -0.886681 0.462278 0.000000
vn -0.887749 0.460233 0.000000
# 180 uv coords
vt 0.605501 0.983239
vt 0.664146 0.983979
vt 0.772397 0.978225
vt 0.853112 0.980083
vt 0.024716 0.942600
vt 0.023660 0.788020
vt 0.018561 0.691345
vt 0.024567 0.592883
vt 0.025203 0.495430
vt 0.026762 0.397484
vt 0.027227 0.299833
vt 0.027873 0.202044
vt 0.028957 0.104350
vt 0.029855 0.039177
vt 0.605642 0.978960
vt 0.664367 0.979716
vt 0.772647 0.973953
vt 0.853424 0.975827
vt 0.020441 0.942973
vt 0.019399 0.787823
vt 0.014293 0.691030
vt 0.020319 0.592438
vt 0.020939 0.495082
vt 0.022504 0.397114
vt 0.022967 0.299495
vt 0.023610 0.201695
vt 0.024696 0.104009
vt 0.025593 0.038832
vt 0.605783 0.974695
vt 0.664591 0.975443
vt 0.772899 0.969688
vt 0.853735 0.971563
vt 0.016188 0.943344
vt 0.015127 0.787630
vt 0.010033 0.690715
vt 0.016066 0.591993
vt 0.016681 0.494734
vt 0.018244 0.396743
vt 0.018706 0.299157
vt 0.019349 0.201346
vt 0.020434 0.103667
vt 0.021331 0.038489
vt 0.955575 0.015166
vt 0.896765 0.015815
vt 0.788457 0.010034
vt 0.707622 0.011951
vt 0.075027 0.052205
vt 0.070140 0.207844
vt 0.062624 0.304599
vt 0.066000 0.403446
vt 0.063963 0.500686
vt 0.063038 0.598686
vt 0.061460 0.696258
vt 0.059852 0.794051
vt 0.058126 0.891712
vt 0.056890 0.956878
vt 0.955712 0.019432
vt 0.896986 0.020090
vt 0.788709 0.014298
vt 0.707933 0.016211
vt 0.079270 0.052681
vt 0.074418 0.207759
vt 0.066890 0.304393
vt 0.070264 0.403110
vt 0.068230 0.500446
vt 0.067308 0.598422
vt 0.065727 0.696028
vt 0.064122 0.793816
vt 0.062396 0.891492
vt 0.061160 0.956663
vt 0.955850 0.023711
vt 0.897205 0.024355
vt 0.788958 0.018570
vt 0.708245 0.020463
vt 0.083535 0.053160
vt 0.078681 0.207669
vt 0.071164 0.304188
vt 0.074524 0.402776
vt 0.072502 0.500207
vt 0.071575 0.598158
vt 0.069995 0.695798
vt 0.068391 0.793581
vt 0.066665 0.891274
vt 0.065430 0.956447
vt 0.095832 0.015679
vt 0.099370 0.018051
vt 0.087766 0.053795
vt 0.082947 0.207777
vt 0.093647 0.011961
vt 0.075443 0.304158
vt 0.091441 0.008235
vt 0.078794 0.402625
vt 0.087939 0.005764
vt 0.070830 0.051526
vt 0.076780 0.500144
vt 0.065860 0.207731
vt 0.075848 0.598081
vt 0.058353 0.304628
vt 0.074269 0.695743
vt 0.061725 0.403596
vt 0.072665 0.793527
vt 0.059690 0.500749
vt 0.070941 0.891230
vt 0.058761 0.598763
vt 0.069705 0.956411
vt 0.057185 0.696314
vt 0.068963 0.988984
vt 0.064688 0.989014
vt 0.055578 0.794105
vt 0.060418 0.989223
vt 0.053850 0.891756
vt 0.056148 0.989433
vt 0.052615 0.956916
vt 0.051873 0.989463
vt 0.039697 0.978083
vt 0.036102 0.980367
vt 0.028960 0.942070
vt 0.033827 0.984031
vt 0.027929 0.788018
vt 0.031530 0.987700
vt 0.022837 0.691485
vt 0.027969 0.990085
vt 0.011976 0.943920
vt 0.028831 0.593146
vt 0.010845 0.787636
vt 0.029478 0.495604
vt 0.005764 0.690575
vt 0.031033 0.397663
vt 0.011796 0.591729
vt 0.031498 0.299988
vt 0.012411 0.494560
vt 0.032146 0.202211
vt 0.013972 0.396564
vt 0.033229 0.104522
vt 0.014434 0.299002
vt 0.034127 0.039347
vt 0.015078 0.201179
vt 0.030131 0.006604
vt 0.034403 0.006767
vt 0.016161 0.103495
vt 0.025869 0.006265
vt 0.017059 0.038319
vt 0.021606 0.005926
vt 0.017334 0.005764
vt 0.571141 0.986573
vt 0.571014 0.982306
vt 0.664106 0.988249
vt 0.605552 0.987518
vt 0.570885 0.978027
vt 0.571423 0.990833
vt 0.605736 0.970427
vt 0.664630 0.971164
vt 0.772331 0.982503
vt 0.570605 0.973754
vt 0.772967 0.965418
vt 0.986550 0.972862
vt 0.983558 0.975847
vt 0.852999 0.984349
vt 0.853873 0.967288
vt 0.989541 0.969884
vt 0.982407 0.979952
vt 0.990749 0.965802
vt 0.571815 0.010336
vt 0.570605 0.006251
vt 0.707482 0.007679
vt 0.788389 0.005764
vt 0.574805 0.013319
vt 0.896730 0.011535
vt 0.577798 0.016309
vt 0.955627 0.010899
vt 0.708361 0.024728
vt 0.578950 0.020416
vt 0.990754 0.014258
vt 0.990470 0.018530
vt 0.789023 0.022848
vt 0.990337 0.022809
vt 0.897241 0.028625
vt 0.990207 0.027076
vt 0.955795 0.027990
vt 0.989920 0.031336
# 128 polygons
usemtl initialShadingGroup
s 1
g time_lord_assembly vaccuum_tube_assembly_1 vaccuum_tube_numbers_1 vaccuumtube_seven1
f 1/145/1 18/146/2 19/15/3 2/1/4
f 2/1/4 19/15/3 20/16/5 3/2/6
f 3/2/6 20/16/5 21/17/7 4/3/8
f 4/3/8 21/17/7 22/18/9 5/4/10
f 5/4/10 22/18/9 23/156/11 6/157/12
f 6/116/12 23/118/11 24/19/13 7/5/14
f 7/5/14 24/19/13 25/20/15 8/6/16
f 8/6/16 25/20/15 26/21/17 9/7/18
f 9/7/18 26/21/17 27/22/19 10/8/20
f 10/8/20 27/22/19 28/23/21 11/9/22
f 11/9/22 28/23/21 29/24/23 12/10/24
f 12/10/24 29/24/23 30/25/25 13/11/26
f 13/11/26 30/25/25 31/26/27 14/12/28
f 14/12/28 31/26/27 32/27/29 15/13/30
f 15/13/30 32/27/29 33/28/31 16/14/32
f 16/14/32 33/28/31 34/141/33 17/138/34
f 18/146/2 35/149/35 36/29/36 19/15/3
f 19/15/3 36/29/36 37/30/37 20/16/5
f 20/16/5 37/30/37 38/31/38 21/17/7
f 21/17/7 38/31/38 39/32/39 22/18/9
f 22/18/9 39/32/39 40/160/40 23/156/11
f 23/118/11 40/120/40 41/33/41 24/19/13
f 24/19/13 41/33/41 42/34/42 25/20/15
f 25/20/15 42/34/42 43/35/43 26/21/17
f 26/21/17 43/35/43 44/36/44 27/22/19
f 27/22/19 44/36/44 45/37/45 28/23/21
f 28/23/21 45/37/45 46/38/46 29/24/23
f 29/24/23 46/38/46 47/39/47 30/25/25
f 30/25/25 47/39/47 48/40/48 31/26/27
f 31/26/27 48/40/48 49/41/49 32/27/29
f 32/27/29 49/41/49 50/42/50 33/28/31
f 33/28/31 50/42/50 51/143/51 34/141/33
f 35/149/35 52/154/52 53/151/53 36/29/36
f 36/29/36 53/151/53 54/152/54 37/30/37
f 37/30/37 54/152/54 55/155/55 38/31/38
f 38/31/38 55/155/55 56/159/56 39/32/39
f 39/32/39 56/159/56 57/162/57 40/160/40
f 40/120/40 57/122/57 58/123/58 41/33/41
f 41/33/41 58/123/58 59/125/59 42/34/42
f 42/34/42 59/125/59 60/127/60 43/35/43
f 43/35/43 60/127/60 61/129/61 44/36/44
f 44/36/44 61/129/61 62/131/62 45/37/45
f 45/37/45 62/131/62 63/133/63 46/38/46
f 46/38/46 63/133/63 64/135/64 47/39/47
f 47/39/47 64/135/64 65/137/65 48/40/48
f 48/40/48 65/137/65 66/140/66 49/41/49
f 49/41/49 66/140/66 67/142/67 50/42/50
f 50/42/50 67/142/67 68/144/68 51/143/51
f 52/173/52 69/174/69 70/43/70 53/170/53
f 53/170/53 70/43/70 71/44/71 54/168/54
f 54/168/54 71/44/71 72/45/72 55/166/55
f 55/166/55 72/45/72 73/46/73 56/165/56
f 56/165/56 73/46/73 74/163/74 57/164/57
f 57/93/57 74/91/74 75/47/75 58/94/58
f 58/94/58 75/47/75 76/48/76 59/96/59
f 59/96/59 76/48/76 77/49/77 60/98/60
f 60/98/60 77/49/77 78/50/78 61/100/61
f 61/100/61 78/50/78 79/51/79 62/102/62
f 62/102/62 79/51/79 80/52/80 63/104/63
f 63/104/63 80/52/80 81/53/81 64/106/64
f 64/106/64 81/53/81 82/54/82 65/109/65
f 65/109/65 82/54/82 83/55/83 66/111/66
f 66/111/66 83/55/83 84/56/84 67/113/67
f 67/113/67 84/56/84 85/112/85 68/114/68
f 69/174/69 86/176/86 87/57/87 70/43/70
f 70/43/70 87/57/87 88/58/88 71/44/71
f 71/44/71 88/58/88 89/59/89 72/45/72
f 72/45/72 89/59/89 90/60/90 73/46/73
f 73/46/73 90/60/90 91/167/91 74/163/74
f 74/91/74 91/89/91 92/61/92 75/47/75
f 75/47/75 92/61/92 93/62/93 76/48/76
f 76/48/76 93/62/93 94/63/94 77/49/77
f 77/49/77 94/63/94 95/64/95 78/50/78
f 78/50/78 95/64/95 96/65/96 79/51/79
f 79/51/79 96/65/96 97/66/97 80/52/80
f 80/52/80 97/66/97 98/67/98 81/53/81
f 81/53/81 98/67/98 99/68/99 82/54/82
f 82/54/82 99/68/99 100/69/100 83/55/83
f 83/55/83 100/69/100 101/70/101 84/56/84
f 84/56/84 101/70/101 102/110/102 85/112/85
f 86/176/86 103/178/103 104/71/104 87/57/87
f 87/57/87 104/71/104 105/72/105 88/58/88
f 88/58/88 105/72/105 106/73/106 89/59/89
f 89/59/89 106/73/106 107/74/107 90/60/90
f 90/60/90 107/74/107 108/169/108 91/167/91
f 91/89/91 108/85/108 109/75/109 92/61/92
f 92/61/92 109/75/109 110/76/110 93/62/93
f 93/62/93 110/76/110 111/77/111 94/63/94
f 94/63/94 111/77/111 112/78/112 95/64/95
f 95/64/95 112/78/112 113/79/113 96/65/96
f 96/65/96 113/79/113 114/80/114 97/66/97
f 97/66/97 114/80/114 115/81/115 98/67/98
f 98/67/98 115/81/115 116/82/116 99/68/99
f 99/68/99 116/82/116 117/83/117 100/69/100
f 100/69/100 117/83/117 118/84/118 101/70/101
f 101/70/101 118/84/118 119/108/119 102/110/102
f 103/178/103 120/180/120 121/179/121 104/71/104
f 104/71/104 121/179/121 122/177/122 105/72/105
f 105/72/105 122/177/122 123/175/123 106/73/106
f 106/73/106 123/175/123 124/171/124 107/74/107
f 107/74/107 124/171/124 125/172/125 108/169/108
f 108/85/108 125/86/125 126/87/126 109/75/109
f 109/75/109 126/87/126 127/88/127 110/76/110
f 110/76/110 127/88/127 128/90/128 111/77/111
f 111/77/111 128/90/128 129/92/129 112/78/112
f 112/78/112 129/92/129 130/95/130 113/79/113
f 113/79/113 130/95/130 131/97/131 114/80/114
f 114/80/114 131/97/131 132/99/132 115/81/115
f 115/81/115 132/99/132 133/101/133 116/82/116
f 116/82/116 133/101/133 134/103/134 117/83/117
f 117/83/117 134/103/134 135/105/135 118/84/118
f 118/84/118 135/105/135 136/107/136 119/108/119
f 120/150/120 1/145/1 2/1/4 121/148/121
f 121/148/121 2/1/4 3/2/6 122/147/122
f 122/147/122 3/2/6 4/3/8 123/153/123
f 123/153/123 4/3/8 5/4/10 124/158/124
f 124/158/124 5/4/10 6/157/12 125/161/125
f 125/115/125 6/116/12 7/5/14 126/117/126
f 126/117/126 7/5/14 8/6/16 127/119/127
f 127/119/127 8/6/16 9/7/18 128/121/128
f 128/121/128 9/7/18 10/8/20 129/124/129
f 129/124/129 10/8/20 11/9/22 130/126/130
f 130/126/130 11/9/22 12/10/24 131/128/131
f 131/128/131 12/10/24 13/11/26 132/130/132
f 132/130/132 13/11/26 14/12/28 133/132/133
f 133/132/133 14/12/28 15/13/30 134/134/134
f 134/134/134 15/13/30 16/14/32 135/136/135
f 135/136/135 16/14/32 17/138/34 136/139/136
