# This file uses centimeters as units for non-parametric coordinates.

mtllib seven_out.mtl
g default
v -5.445620 3.614081 1.182835
v -5.377906 3.623624 1.182835
v -5.261628 3.621041 1.182835
v -5.047461 3.640398 1.182835
v -4.887401 3.634638 1.182835
v -4.629093 3.653351 1.182835
v -4.632989 3.575471 1.182835
v -4.775972 3.304450 1.182835
v -4.846971 3.126086 1.182835
v -4.951763 2.960897 1.182835
v -5.037898 2.787803 1.182835
v -5.133137 2.618441 1.182835
v -5.222363 2.446478 1.182835
v -5.314027 2.275488 1.182835
v -5.403563 2.103566 1.182835
v -5.463478 1.988970 1.182835
v -5.493225 1.931599 1.182835
v -5.446105 3.621902 1.179589
v -5.377760 3.631459 1.179589
v -5.261292 3.628870 1.179589
v -5.047070 3.648224 1.179589
v -4.886896 3.642457 1.179589
v -4.623228 3.658548 1.179589
v -4.625585 3.572907 1.179589
v -4.769130 3.300631 1.179589
v -4.840286 3.121996 1.179589
v -4.945253 2.956535 1.179589
v -5.031275 2.783615 1.179589
v -5.126550 2.614197 1.179589
v -5.215733 2.442300 1.179589
v -5.307401 2.271305 1.179589
v -5.396915 2.099418 1.179589
v -5.456827 1.984827 1.179589
v -5.486566 1.927469 1.179589
v -5.446591 3.629724 1.182835
v -5.377614 3.639293 1.182835
v -5.260954 3.636699 1.182835
v -5.046679 3.656051 1.182835
v -4.886391 3.650277 1.182835
v -4.617364 3.663746 1.182835
v -4.618180 3.570344 1.182835
v -4.762287 3.296812 1.182835
v -4.833602 3.117906 1.182835
v -4.938744 2.952173 1.182835
v -5.024652 2.779427 1.182835
v -5.119963 2.609953 1.182835
v -5.209103 2.438123 1.182835
v -5.300775 2.267122 1.182835
v -5.390268 2.095269 1.182835
v -5.450175 1.980685 1.182835
v -5.479907 1.923338 1.182835
v -5.446792 3.632963 1.190671
v -5.377554 3.642539 1.190671
v -5.260815 3.639942 1.190671
v -5.046517 3.659293 1.190671
v -4.886182 3.653517 1.190671
v -4.614934 3.665899 1.190671
v -4.615112 3.569282 1.190671
v -4.759453 3.295231 1.190671
v -4.830834 3.116212 1.190671
v -4.936048 2.950366 1.190671
v -5.021908 2.777692 1.190671
v -5.117234 2.608195 1.190671
v -5.206357 2.436392 1.190671
v -5.298030 2.265390 1.190671
v -5.387514 2.093551 1.190671
v -5.447420 1.978969 1.190671
v -5.477149 1.921627 1.190671
v -5.446591 3.629724 1.198507
v -5.377614 3.639293 1.198507
v -5.260954 3.636699 1.198507
v -5.046679 3.656051 1.198507
v -4.886391 3.650277 1.198507
v -4.617364 3.663746 1.198507
v -4.618180 3.570344 1.198507
v -4.762287 3.296812 1.198507
v -4.833602 3.117906 1.198507
v -4.938744 2.952173 1.198507
v -5.024652 2.779427 1.198507
v -5.119963 2.609953 1.198507
v -5.209103 2.438123 1.198507
v -5.300775 2.267122 1.198507
v -5.390268 2.095269 1.198507
v -5.450175 1.980685 1.198507
v -5.479907 1.923338 1.198507
v -5.446105 3.621902 1.201753
v -5.377760 3.631459 1.201753
v -5.261292 3.628870 1.201753
v -5.047070 3.648224 1.201753
v -4.886896 3.642457 1.201753
v -4.623228 3.658548 1.201753
v -4.625585 3.572907 1.201753
v -4.769130 3.300631 1.201753
v -4.840286 3.121996 1.201753
v -4.945253 2.956535 1.201753
v -5.031275 2.783615 1.201753
v -5.126550 2.614197 1.201753
v -5.215733 2.442300 1.201753
v -5.307401 2.271305 1.201753
v -5.396915 2.099418 1.201753
v -5.456827 1.984827 1.201753
v -5.486566 1.927469 1.201753
v -5.445620 3.614081 1.198507
v -5.377906 3.623624 1.198507
v -5.261628 3.621041 1.198507
v -5.047461 3.640398 1.198507
v -4.887401 3.634638 1.198507
v -4.629093 3.653351 1.198507
v -4.632989 3.575471 1.198507
v -4.775972 3.304450 1.198507
v -4.846971 3.126086 1.198507
v -4.951763 2.960897 1.198507
v -5.037898 2.787803 1.198507
v -5.133137 2.618441 1.198507
v -5.222363 2.446478 1.198507
v -5.314027 2.275488 1.198507
v -5.403563 2.103566 1.198507
v -5.463478 1.988970 1.198507
v -5.493225 1.931599 1.198507
v -5.445419 3.610842 1.190671
v -5.377966 3.620378 1.190671
v -5.261768 3.617799 1.190671
v -5.047623 3.637156 1.190671
v -4.887610 3.631399 1.190671
v -4.631522 3.651198 1.190671
v -4.636057 3.576533 1.190671
v -4.778806 3.306032 1.190671
v -4.849739 3.127780 1.190671
v -4.954459 2.962704 1.190671
v -5.040641 2.789538 1.190671
v -5.135866 2.620199 1.190671
v -5.225109 2.448208 1.190671
v -5.316772 2.277220 1.190671
v -5.406317 2.105284 1.190671
v -5.466234 1.990685 1.190671
v -5.495983 1.933311 1.190671
vt -1.000000 0.000000
vt -1.000000 0.023810
vt -1.000000 0.071429
vt -1.000000 0.142857
vt -1.000000 0.214286
vt -1.000000 0.285714
vt -1.000000 0.357143
vt -1.000000 0.428571
vt -1.000000 0.500000
vt -1.000000 0.571429
vt -1.000000 0.642857
vt -1.000000 0.714286
vt -1.000000 0.785714
vt -1.000000 0.857143
vt -1.000000 0.928571
vt -1.000000 0.976190
vt -1.000000 1.000000
vt 0.000000 0.000000
vt 0.000000 0.023810
vt 0.000000 0.071429
vt 0.000000 0.142857
vt 0.000000 0.214286
vt 0.000000 0.285714
vt 0.000000 0.357143
vt 0.000000 0.428571
vt 0.000000 0.500000
vt 0.000000 0.571429
vt 0.000000 0.642857
vt 0.000000 0.714286
vt 0.000000 0.785714
vt 0.000000 0.857143
vt 0.000000 0.928571
vt 0.000000 0.976190
vt 0.000000 1.000000
vt 1.000000 0.000000
vt 1.000000 0.023810
vt 1.000000 0.071429
vt 1.000000 0.142857
vt 1.000000 0.214286
vt 1.000000 0.285714
vt 1.000000 0.357143
vt 1.000000 0.428571
vt 1.000000 0.500000
vt 1.000000 0.571429
vt 1.000000 0.642857
vt 1.000000 0.714286
vt 1.000000 0.785714
vt 1.000000 0.857143
vt 1.000000 0.928571
vt 1.000000 0.976190
vt 1.000000 1.000000
vt 2.000000 0.000000
vt 2.000000 0.023810
vt 2.000000 0.071429
vt 2.000000 0.142857
vt 2.000000 0.214286
vt 2.000000 0.285714
vt 2.000000 0.357143
vt 2.000000 0.428571
vt 2.000000 0.500000
vt 2.000000 0.571429
vt 2.000000 0.642857
vt 2.000000 0.714286
vt 2.000000 0.785714
vt 2.000000 0.857143
vt 2.000000 0.928571
vt 2.000000 0.976190
vt 2.000000 1.000000
vt 3.000000 0.000000
vt 3.000000 0.023810
vt 3.000000 0.071429
vt 3.000000 0.142857
vt 3.000000 0.214286
vt 3.000000 0.285714
vt 3.000000 0.357143
vt 3.000000 0.428571
vt 3.000000 0.500000
vt 3.000000 0.571429
vt 3.000000 0.642857
vt 3.000000 0.714286
vt 3.000000 0.785714
vt 3.000000 0.857143
vt 3.000000 0.928571
vt 3.000000 0.976190
vt 3.000000 1.000000
vt 4.000000 0.000000
vt 4.000000 0.023810
vt 4.000000 0.071429
vt 4.000000 0.142857
vt 4.000000 0.214286
vt 4.000000 0.285714
vt 4.000000 0.357143
vt 4.000000 0.428571
vt 4.000000 0.500000
vt 4.000000 0.571429
vt 4.000000 0.642857
vt 4.000000 0.714286
vt 4.000000 0.785714
vt 4.000000 0.857143
vt 4.000000 0.928571
vt 4.000000 0.976190
vt 4.000000 1.000000
vt 5.000000 0.000000
vt 5.000000 0.023810
vt 5.000000 0.071429
vt 5.000000 0.142857
vt 5.000000 0.214286
vt 5.000000 0.285714
vt 5.000000 0.357143
vt 5.000000 0.428571
vt 5.000000 0.500000
vt 5.000000 0.571429
vt 5.000000 0.642857
vt 5.000000 0.714286
vt 5.000000 0.785714
vt 5.000000 0.857143
vt 5.000000 0.928571
vt 5.000000 0.976190
vt 5.000000 1.000000
vt 6.000000 0.000000
vt 6.000000 0.023810
vt 6.000000 0.071429
vt 6.000000 0.142857
vt 6.000000 0.214286
vt 6.000000 0.285714
vt 6.000000 0.357143
vt 6.000000 0.428571
vt 6.000000 0.500000
vt 6.000000 0.571429
vt 6.000000 0.642857
vt 6.000000 0.714286
vt 6.000000 0.785714
vt 6.000000 0.857143
vt 6.000000 0.928571
vt 6.000000 0.976190
vt 6.000000 1.000000
vn 0.100263 -0.711429 -0.695569
vn 0.002576 -0.016797 -0.999856
vn -0.001977 0.015645 -0.999876
vn 0.026434 -0.698753 -0.714875
vn 0.001948 -0.019123 -0.999815
vn 0.036416 -0.717377 -0.695733
vn -0.001814 0.018194 -0.999833
vn 0.025393 -0.698910 -0.714758
vn 0.002888 -0.015591 -0.999874
vn 0.023532 -0.757385 -0.652544
vn 0.048140 0.196354 -0.979351
vn -0.135296 -0.578113 -0.804662
vn 0.048265 -0.013926 -0.998738
vn -0.637995 0.268265 -0.721801
vn -0.007563 0.002556 -0.999968
vn -0.644145 0.306722 -0.700714
vn 0.021137 -0.008880 -0.999737
vn -0.619908 0.317195 -0.717706
vn -0.011325 0.005272 -0.999922
vn -0.621852 0.350975 -0.700083
vn 0.005582 -0.002407 -0.999982
vn -0.623452 0.330197 -0.708716
vn -0.003748 0.001664 -0.999992
vn -0.624672 0.337597 -0.704140
vn 0.001466 -0.000629 -0.999999
vn -0.625745 0.330048 -0.706761
vn -0.001350 0.000588 -0.999999
vn -0.626718 0.331171 -0.705373
vn 0.003486 -0.001798 -0.999992
vn -0.626185 0.326624 -0.707961
vn 0.005161 -0.002719 -0.999983
vn -0.625345 0.326046 -0.708969
vn 0.016656 -0.008629 -0.999824
vn -0.620460 0.321713 -0.715214
vn -0.096419 0.694925 -0.712589
vn -0.026842 0.714405 -0.699217
vn -0.035370 0.698457 -0.714778
vn -0.025989 0.716958 -0.696632
vn -0.013430 0.745596 -0.666263
vn 0.231493 0.764305 -0.601871
vn 0.687684 -0.271311 -0.673410
vn 0.637098 -0.303342 -0.708583
vn 0.640022 -0.327698 -0.694972
vn 0.611092 -0.344922 -0.712457
vn 0.628743 -0.332944 -0.702731
vn 0.621101 -0.335664 -0.708211
vn 0.627142 -0.330761 -0.705188
vn 0.625442 -0.330483 -0.706826
vn 0.629653 -0.328415 -0.704046
vn 0.630505 -0.328722 -0.703139
vn 0.637046 -0.330278 -0.696483
vn -0.137208 0.990542 -0.000000
vn -0.036116 0.999348 -0.000000
vn -0.051498 0.998673 -0.000000
vn -0.035046 0.999386 0.000000
vn -0.017260 0.999851 -0.000000
vn 0.302157 0.953258 -0.000000
vn 0.929473 -0.368890 -0.000001
vn 0.903278 -0.429056 -0.000000
vn 0.889291 -0.457343 0.000001
vn 0.871325 -0.490707 0.000000
vn 0.883520 -0.468394 -0.000004
vn 0.879897 -0.475165 -0.000004
vn 0.884462 -0.466613 -0.000000
vn 0.884210 -0.467090 0.000000
vn 0.886636 -0.462467 -0.000001
vn 0.886735 -0.462278 -0.000001
vn 0.887779 -0.460271 -0.000000
vn -0.096420 0.694925 0.712589
vn -0.026843 0.714405 0.699217
vn -0.035370 0.698457 0.714778
vn -0.025989 0.716958 0.696632
vn -0.013430 0.745596 0.666263
vn 0.231494 0.764305 0.601871
vn 0.687681 -0.271311 0.673413
vn 0.637095 -0.303343 0.708586
vn 0.640024 -0.327697 0.694970
vn 0.611094 -0.344922 0.712456
vn 0.628742 -0.332946 0.702730
vn 0.621103 -0.335665 0.708209
vn 0.627142 -0.330761 0.705188
vn 0.625439 -0.330485 0.706828
vn 0.629652 -0.328416 0.704047
vn 0.630504 -0.328724 0.703140
vn 0.637042 -0.330278 0.696486
vn 0.002575 -0.016797 0.999856
vn -0.001977 0.015645 0.999876
vn 0.001948 -0.019123 0.999815
vn -0.001814 0.018194 0.999833
vn 0.002888 -0.015591 0.999874
vn 0.048138 0.196354 0.979351
vn 0.048249 -0.013926 0.998738
vn -0.007575 0.002556 0.999968
vn 0.021132 -0.008880 0.999737
vn -0.011327 0.005271 0.999922
vn 0.005580 -0.002406 0.999982
vn -0.003751 0.001666 0.999992
vn 0.001467 -0.000628 0.999999
vn -0.001354 0.000589 0.999999
vn 0.003478 -0.001798 0.999992
vn 0.005155 -0.002719 0.999983
vn 0.016647 -0.008626 0.999824
vn 0.100262 -0.711429 0.695569
vn 0.026434 -0.698753 0.714875
vn 0.036416 -0.717377 0.695733
vn 0.025393 -0.698910 0.714758
vn 0.023532 -0.757385 0.652544
vn -0.135296 -0.578113 0.804662
vn -0.638003 0.268262 0.721795
vn -0.644152 0.306718 0.700708
vn -0.619910 0.317194 0.717704
vn -0.621849 0.350975 0.700086
vn -0.623445 0.330195 0.708722
vn -0.624669 0.337596 0.704143
vn -0.625745 0.330048 0.706761
vn -0.626720 0.331170 0.705371
vn -0.626186 0.326624 0.707961
vn -0.625343 0.326047 0.708971
vn -0.620459 0.321712 0.715215
vn 0.139764 -0.990185 0.000000
vn 0.039234 -0.999230 0.000000
vn 0.049734 -0.998762 -0.000000
vn 0.037452 -0.999298 0.000000
vn 0.031229 -0.999512 0.000000
vn -0.214443 -0.976737 0.000000
vn -0.921455 0.388484 -0.000001
vn -0.902457 0.430779 -0.000001
vn -0.891018 0.453967 -0.000001
vn -0.870386 0.492370 0.000002
vn -0.883925 0.467629 0.000006
vn -0.879593 0.475727 0.000005
vn -0.884562 0.466423 0.000000
vn -0.884098 0.467303 -0.000000
vn -0.886637 0.462466 0.000000
vn -0.886699 0.462347 0.000002
vn -0.887756 0.460314 0.000004
s 1
g vaccuumtube_seven1 vaccuum_tube_numbers_1 vaccuum_tube_assembly_1 time_lord_assembly
usemtl initialShadingGroup
f 1/1/1 18/18/2 19/19/3 2/2/4
f 2/2/4 19/19/3 20/20/5 3/3/6
f 3/3/6 20/20/5 21/21/7 4/4/8
f 4/4/8 21/21/7 22/22/9 5/5/10
f 5/5/10 22/22/9 23/23/11 6/6/12
f 6/6/12 23/23/11 24/24/13 7/7/14
f 7/7/14 24/24/13 25/25/15 8/8/16
f 8/8/16 25/25/15 26/26/17 9/9/18
f 9/9/18 26/26/17 27/27/19 10/10/20
f 10/10/20 27/27/19 28/28/21 11/11/22
f 11/11/22 28/28/21 29/29/23 12/12/24
f 12/12/24 29/29/23 30/30/25 13/13/26
f 13/13/26 30/30/25 31/31/27 14/14/28
f 14/14/28 31/31/27 32/32/29 15/15/30
f 15/15/30 32/32/29 33/33/31 16/16/32
f 16/16/32 33/33/31 34/34/33 17/17/34
f 18/18/2 35/35/35 36/36/36 19/19/3
f 19/19/3 36/36/36 37/37/37 20/20/5
f 20/20/5 37/37/37 38/38/38 21/21/7
f 21/21/7 38/38/38 39/39/39 22/22/9
f 22/22/9 39/39/39 40/40/40 23/23/11
f 23/23/11 40/40/40 41/41/41 24/24/13
f 24/24/13 41/41/41 42/42/42 25/25/15
f 25/25/15 42/42/42 43/43/43 26/26/17
f 26/26/17 43/43/43 44/44/44 27/27/19
f 27/27/19 44/44/44 45/45/45 28/28/21
f 28/28/21 45/45/45 46/46/46 29/29/23
f 29/29/23 46/46/46 47/47/47 30/30/25
f 30/30/25 47/47/47 48/48/48 31/31/27
f 31/31/27 48/48/48 49/49/49 32/32/29
f 32/32/29 49/49/49 50/50/50 33/33/31
f 33/33/31 50/50/50 51/51/51 34/34/33
f 35/35/35 52/52/52 53/53/53 36/36/36
f 36/36/36 53/53/53 54/54/54 37/37/37
f 37/37/37 54/54/54 55/55/55 38/38/38
f 38/38/38 55/55/55 56/56/56 39/39/39
f 39/39/39 56/56/56 57/57/57 40/40/40
f 40/40/40 57/57/57 58/58/58 41/41/41
f 41/41/41 58/58/58 59/59/59 42/42/42
f 42/42/42 59/59/59 60/60/60 43/43/43
f 43/43/43 60/60/60 61/61/61 44/44/44
f 44/44/44 61/61/61 62/62/62 45/45/45
f 45/45/45 62/62/62 63/63/63 46/46/46
f 46/46/46 63/63/63 64/64/64 47/47/47
f 47/47/47 64/64/64 65/65/65 48/48/48
f 48/48/48 65/65/65 66/66/66 49/49/49
f 49/49/49 66/66/66 67/67/67 50/50/50
f 50/50/50 67/67/67 68/68/68 51/51/51
f 52/52/52 69/69/69 70/70/70 53/53/53
f 53/53/53 70/70/70 71/71/71 54/54/54
f 54/54/54 71/71/71 72/72/72 55/55/55
f 55/55/55 72/72/72 73/73/73 56/56/56
f 56/56/56 73/73/73 74/74/74 57/57/57
f 57/57/57 74/74/74 75/75/75 58/58/58
f 58/58/58 75/75/75 76/76/76 59/59/59
f 59/59/59 76/76/76 77/77/77 60/60/60
f 60/60/60 77/77/77 78/78/78 61/61/61
f 61/61/61 78/78/78 79/79/79 62/62/62
f 62/62/62 79/79/79 80/80/80 63/63/63
f 63/63/63 80/80/80 81/81/81 64/64/64
f 64/64/64 81/81/81 82/82/82 65/65/65
f 65/65/65 82/82/82 83/83/83 66/66/66
f 66/66/66 83/83/83 84/84/84 67/67/67
f 67/67/67 84/84/84 85/85/85 68/68/68
f 69/69/69 86/86/86 87/87/87 70/70/70
f 70/70/70 87/87/87 88/88/88 71/71/71
f 71/71/71 88/88/88 89/89/89 72/72/72
f 72/72/72 89/89/89 90/90/90 73/73/73
f 73/73/73 90/90/90 91/91/91 74/74/74
f 74/74/74 91/91/91 92/92/92 75/75/75
f 75/75/75 92/92/92 93/93/93 76/76/76
f 76/76/76 93/93/93 94/94/94 77/77/77
f 77/77/77 94/94/94 95/95/95 78/78/78
f 78/78/78 95/95/95 96/96/96 79/79/79
f 79/79/79 96/96/96 97/97/97 80/80/80
f 80/80/80 97/97/97 98/98/98 81/81/81
f 81/81/81 98/98/98 99/99/99 82/82/82
f 82/82/82 99/99/99 100/100/100 83/83/83
f 83/83/83 100/100/100 101/101/101 84/84/84
f 84/84/84 101/101/101 102/102/102 85/85/85
f 86/86/86 103/103/103 104/104/104 87/87/87
f 87/87/87 104/104/104 105/105/105 88/88/88
f 88/88/88 105/105/105 106/106/106 89/89/89
f 89/89/89 106/106/106 107/107/107 90/90/90
f 90/90/90 107/107/107 108/108/108 91/91/91
f 91/91/91 108/108/108 109/109/109 92/92/92
f 92/92/92 109/109/109 110/110/110 93/93/93
f 93/93/93 110/110/110 111/111/111 94/94/94
f 94/94/94 111/111/111 112/112/112 95/95/95
f 95/95/95 112/112/112 113/113/113 96/96/96
f 96/96/96 113/113/113 114/114/114 97/97/97
f 97/97/97 114/114/114 115/115/115 98/98/98
f 98/98/98 115/115/115 116/116/116 99/99/99
f 99/99/99 116/116/116 117/117/117 100/100/100
f 100/100/100 117/117/117 118/118/118 101/101/101
f 101/101/101 118/118/118 119/119/119 102/102/102
f 103/103/103 120/120/120 121/121/121 104/104/104
f 104/104/104 121/121/121 122/122/122 105/105/105
f 105/105/105 122/122/122 123/123/123 106/106/106
f 106/106/106 123/123/123 124/124/124 107/107/107
f 107/107/107 124/124/124 125/125/125 108/108/108
f 108/108/108 125/125/125 126/126/126 109/109/109
f 109/109/109 126/126/126 127/127/127 110/110/110
f 110/110/110 127/127/127 128/128/128 111/111/111
f 111/111/111 128/128/128 129/129/129 112/112/112
f 112/112/112 129/129/129 130/130/130 113/113/113
f 113/113/113 130/130/130 131/131/131 114/114/114
f 114/114/114 131/131/131 132/132/132 115/115/115
f 115/115/115 132/132/132 133/133/133 116/116/116
f 116/116/116 133/133/133 134/134/134 117/117/117
f 117/117/117 134/134/134 135/135/135 118/118/118
f 118/118/118 135/135/135 136/136/136 119/119/119
f 120/120/120 1/1/1 2/2/4 121/121/121
f 121/121/121 2/2/4 3/3/6 122/122/122
f 122/122/122 3/3/6 4/4/8 123/123/123
f 123/123/123 4/4/8 5/5/10 124/124/124
f 124/124/124 5/5/10 6/6/12 125/125/125
f 125/125/125 6/6/12 7/7/14 126/126/126
f 126/126/126 7/7/14 8/8/16 127/127/127
f 127/127/127 8/8/16 9/9/18 128/128/128
f 128/128/128 9/9/18 10/10/20 129/129/129
f 129/129/129 10/10/20 11/11/22 130/130/130
f 130/130/130 11/11/22 12/12/24 131/131/131
f 131/131/131 12/12/24 13/13/26 132/132/132
f 132/132/132 13/13/26 14/14/28 133/133/133
f 133/133/133 14/14/28 15/15/30 134/134/134
f 134/134/134 15/15/30 16/16/32 135/135/135
f 135/135/135 16/16/32 17/17/34 136/136/136
