# This file uses centimeters as units for non-parametric coordinates.

mtllib two_out.mtl
g default
v -5.461003 3.402296 1.321843
v -5.427890 3.500787 1.321843
v -5.315678 3.683842 1.321843
v -4.991698 3.768422 1.321843
v -4.689866 3.638458 1.321843
v -4.597834 3.320233 1.321843
v -4.596285 3.003209 1.321843
v -4.756629 2.740404 1.321843
v -5.000837 2.491618 1.321843
v -5.252018 2.218966 1.321843
v -5.508119 1.967302 1.321843
v -5.457369 1.901018 1.321843
v -4.861918 1.952014 1.321843
v -4.681308 1.942250 1.321843
v -4.566257 1.945777 1.321843
v -5.468430 3.404797 1.318597
v -5.434985 3.504114 1.318597
v -5.320339 3.690141 1.318597
v -4.991104 3.776236 1.318597
v -4.683992 3.643645 1.318597
v -4.590079 3.321356 1.318597
v -4.588736 3.001108 1.318597
v -4.750446 2.735590 1.318597
v -4.995158 2.486219 1.318597
v -5.246404 2.213500 1.318597
v -5.500300 1.966779 1.318597
v -5.454254 1.908208 1.318597
v -4.862047 1.959849 1.318597
v -4.681217 1.950085 1.318597
v -4.566498 1.953609 1.318597
v -5.475856 3.407298 1.321843
v -5.442079 3.507442 1.321843
v -5.325001 3.696439 1.321843
v -4.990510 3.784049 1.321843
v -4.678119 3.648832 1.321843
v -4.582324 3.322480 1.321843
v -4.581187 2.999007 1.321843
v -4.744263 2.730776 1.321843
v -4.989479 2.480819 1.321843
v -5.240790 2.208033 1.321843
v -5.492481 1.966256 1.321843
v -5.451139 1.915399 1.321843
v -4.862177 1.967684 1.321843
v -4.681127 1.957921 1.321843
v -4.566739 1.961442 1.321843
v -5.478932 3.408334 1.329679
v -5.445018 3.508820 1.329679
v -5.326932 3.699048 1.329679
v -4.990263 3.787286 1.329679
v -4.675686 3.650981 1.329679
v -4.579112 3.322945 1.329679
v -4.578060 2.998137 1.329679
v -4.741702 2.728782 1.329679
v -4.987127 2.478583 1.329679
v -5.238464 2.205768 1.329679
v -5.489243 1.966040 1.329679
v -5.449849 1.918377 1.329679
v -4.862230 1.970929 1.329679
v -4.681088 1.961167 1.329679
v -4.566838 1.964686 1.329679
v -5.475856 3.407298 1.337515
v -5.442079 3.507442 1.337515
v -5.325001 3.696439 1.337515
v -4.990510 3.784049 1.337515
v -4.678119 3.648832 1.337515
v -4.582324 3.322480 1.337515
v -4.581187 2.999007 1.337515
v -4.744263 2.730776 1.337515
v -4.989479 2.480819 1.337515
v -5.240790 2.208033 1.337515
v -5.492481 1.966256 1.337515
v -5.451139 1.915399 1.337515
v -4.862177 1.967684 1.337515
v -4.681127 1.957921 1.337515
v -4.566739 1.961442 1.337515
v -5.468430 3.404797 1.340761
v -5.434985 3.504114 1.340761
v -5.320339 3.690141 1.340761
v -4.991104 3.776236 1.340761
v -4.683992 3.643645 1.340761
v -4.590079 3.321356 1.340761
v -4.588736 3.001108 1.340761
v -4.750446 2.735590 1.340761
v -4.995158 2.486219 1.340761
v -5.246404 2.213500 1.340761
v -5.500300 1.966779 1.340761
v -5.454254 1.908208 1.340761
v -4.862047 1.959849 1.340761
v -4.681217 1.950085 1.340761
v -4.566498 1.953609 1.340761
v -5.461003 3.402296 1.337515
v -5.427890 3.500787 1.337515
v -5.315678 3.683842 1.337515
v -4.991698 3.768422 1.337515
v -4.689866 3.638458 1.337515
v -4.597834 3.320233 1.337515
v -4.596285 3.003209 1.337515
v -4.756629 2.740404 1.337515
v -5.000837 2.491618 1.337515
v -5.252018 2.218966 1.337515
v -5.508119 1.967302 1.337515
v -5.457369 1.901018 1.337515
v -4.861918 1.952014 1.337515
v -4.681308 1.942250 1.337515
v -4.566257 1.945777 1.337515
v -5.457927 3.401260 1.329679
v -5.424952 3.499408 1.329679
v -5.313747 3.681233 1.329679
v -4.991944 3.765186 1.329679
v -4.692299 3.636310 1.329679
v -4.601047 3.319767 1.329679
v -4.599412 3.004079 1.329679
v -4.759191 2.742398 1.329679
v -5.003189 2.493855 1.329679
v -5.254344 2.221231 1.329679
v -5.511357 1.967518 1.329679
v -5.458659 1.898039 1.329679
v -4.861864 1.948768 1.329679
v -4.681346 1.939004 1.329679
v -4.566158 1.942532 1.329679
vt -1.000000 0.000000
vt -1.000000 0.027778
vt -1.000000 0.083333
vt -1.000000 0.166667
vt -1.000000 0.250000
vt -1.000000 0.333333
vt -1.000000 0.416667
vt -1.000000 0.500000
vt -1.000000 0.583333
vt -1.000000 0.666667
vt -1.000000 0.750000
vt -1.000000 0.833333
vt -1.000000 0.916667
vt -1.000000 0.972222
vt -1.000000 1.000000
vt 0.000000 0.000000
vt 0.000000 0.027778
vt 0.000000 0.083333
vt 0.000000 0.166667
vt 0.000000 0.250000
vt 0.000000 0.333333
vt 0.000000 0.416667
vt 0.000000 0.500000
vt 0.000000 0.583333
vt 0.000000 0.666667
vt 0.000000 0.750000
vt 0.000000 0.833333
vt 0.000000 0.916667
vt 0.000000 0.972222
vt 0.000000 1.000000
vt 1.000000 0.000000
vt 1.000000 0.027778
vt 1.000000 0.083333
vt 1.000000 0.166667
vt 1.000000 0.250000
vt 1.000000 0.333333
vt 1.000000 0.416667
vt 1.000000 0.500000
vt 1.000000 0.583333
vt 1.000000 0.666667
vt 1.000000 0.750000
vt 1.000000 0.833333
vt 1.000000 0.916667
vt 1.000000 0.972222
vt 1.000000 1.000000
vt 2.000000 0.000000
vt 2.000000 0.027778
vt 2.000000 0.083333
vt 2.000000 0.166667
vt 2.000000 0.250000
vt 2.000000 0.333333
vt 2.000000 0.416667
vt 2.000000 0.500000
vt 2.000000 0.583333
vt 2.000000 0.666667
vt 2.000000 0.750000
vt 2.000000 0.833333
vt 2.000000 0.916667
vt 2.000000 0.972222
vt 2.000000 1.000000
vt 3.000000 0.000000
vt 3.000000 0.027778
vt 3.000000 0.083333
vt 3.000000 0.166667
vt 3.000000 0.250000
vt 3.000000 0.333333
vt 3.000000 0.416667
vt 3.000000 0.500000
vt 3.000000 0.583333
vt 3.000000 0.666667
vt 3.000000 0.750000
vt 3.000000 0.833333
vt 3.000000 0.916667
vt 3.000000 0.972222
vt 3.000000 1.000000
vt 4.000000 0.000000
vt 4.000000 0.027778
vt 4.000000 0.083333
vt 4.000000 0.166667
vt 4.000000 0.250000
vt 4.000000 0.333333
vt 4.000000 0.416667
vt 4.000000 0.500000
vt 4.000000 0.583333
vt 4.000000 0.666667
vt 4.000000 0.750000
vt 4.000000 0.833333
vt 4.000000 0.916667
vt 4.000000 0.972222
vt 4.000000 1.000000
vt 5.000000 0.000000
vt 5.000000 0.027778
vt 5.000000 0.083333
vt 5.000000 0.166667
vt 5.000000 0.250000
vt 5.000000 0.333333
vt 5.000000 0.416667
vt 5.000000 0.500000
vt 5.000000 0.583333
vt 5.000000 0.666667
vt 5.000000 0.750000
vt 5.000000 0.833333
vt 5.000000 0.916667
vt 5.000000 0.972222
vt 5.000000 1.000000
vt 6.000000 0.000000
vt 6.000000 0.027778
vt 6.000000 0.083333
vt 6.000000 0.166667
vt 6.000000 0.250000
vt 6.000000 0.333333
vt 6.000000 0.416667
vt 6.000000 0.500000
vt 6.000000 0.583333
vt 6.000000 0.666667
vt 6.000000 0.750000
vt 6.000000 0.833333
vt 6.000000 0.916667
vt 6.000000 0.972222
vt 6.000000 1.000000
vn 0.670548 -0.225440 -0.706784
vn -0.001646 0.000660 -0.999999
vn -0.027617 0.014854 -0.999508
vn 0.622066 -0.321116 -0.714085
vn -0.049081 0.080202 -0.995570
vn 0.342452 -0.558149 -0.755775
vn 0.006295 0.084634 -0.996392
vn -0.048634 -0.670459 -0.740351
vn 0.078882 0.069958 -0.994426
vn -0.481768 -0.423434 -0.767205
vn 0.036997 0.005681 -0.999299
vn -0.692434 -0.102016 -0.714232
vn 0.065454 -0.017901 -0.997695
vn -0.643964 0.176357 -0.744451
vn 0.023041 -0.017955 -0.999573
vn -0.545004 0.430961 -0.719196
vn -0.002599 0.002484 -0.999994
vn -0.514364 0.488670 -0.704721
vn 0.003664 -0.004359 -0.999984
vn -0.522629 0.505656 -0.686419
vn -0.149041 0.095369 -0.984221
vn -0.670975 0.431391 -0.603072
vn -0.004101 -0.125207 -0.992122
vn -0.019006 -0.778600 -0.627233
vn -0.001154 0.017110 -0.999853
vn 0.037975 -0.714624 -0.698477
vn -0.000216 -0.010390 -0.999946
vn -0.015026 -0.712285 -0.701730
vn 0.000005 -0.000599 -1.000000
vn 0.021680 -0.707234 -0.706647
vn -0.671980 0.226650 -0.705034
vn -0.647429 0.337811 -0.683169
vn -0.392296 0.640463 -0.660236
vn 0.055424 0.752897 -0.655801
vn 0.563496 0.498398 -0.658841
vn 0.727503 0.108529 -0.677466
vn 0.710963 -0.194577 -0.675774
vn 0.568497 -0.447923 -0.690055
vn 0.511812 -0.486144 -0.708317
vn 0.523838 -0.512077 -0.680714
vn 0.509616 -0.364519 -0.779370
vn -0.001006 0.662058 -0.749452
vn -0.040352 0.730578 -0.681636
vn 0.014831 0.701901 -0.712120
vn -0.021749 0.706644 -0.707235
vn -0.947522 0.319692 -0.000001
vn -0.886405 0.462911 -0.000001
vn -0.522391 0.852706 -0.000000
vn 0.073467 0.997298 -0.000000
vn 0.748949 0.662628 -0.000000
vn 0.989035 0.147684 0.000000
vn 0.964532 -0.263966 0.000001
vn 0.785573 -0.618769 0.000000
vn 0.725064 -0.688682 -0.000000
vn 0.714737 -0.699393 0.000001
vn 0.809061 -0.587724 0.000001
vn -0.005437 0.999985 -0.000000
vn -0.055341 0.998468 0.000000
vn 0.021125 0.999777 0.000000
vn -0.030776 0.999526 0.000000
vn -0.671977 0.226651 0.705037
vn -0.647429 0.337811 0.683168
vn -0.392297 0.640463 0.660235
vn 0.055423 0.752897 0.655801
vn 0.563493 0.498399 0.658843
vn 0.727498 0.108530 0.677472
vn 0.710959 -0.194578 0.675778
vn 0.568499 -0.447923 0.690054
vn 0.511812 -0.486144 0.708317
vn 0.523834 -0.512079 0.680715
vn 0.509616 -0.364520 0.779370
vn -0.001005 0.662058 0.749452
vn -0.040352 0.730578 0.681636
vn 0.014831 0.701901 0.712120
vn -0.021749 0.706644 0.707235
vn -0.001638 0.000660 0.999998
vn -0.027611 0.014854 0.999508
vn -0.049079 0.080202 0.995570
vn 0.006295 0.084634 0.996392
vn 0.078886 0.069958 0.994426
vn 0.036996 0.005680 0.999299
vn 0.065451 -0.017901 0.997695
vn 0.023043 -0.017955 0.999573
vn -0.002599 0.002484 0.999994
vn 0.003664 -0.004359 0.999984
vn -0.149042 0.095370 0.984221
vn -0.004100 -0.125206 0.992122
vn -0.001154 0.017110 0.999853
vn -0.000216 -0.010390 0.999946
vn 0.000006 -0.000599 1.000000
vn 0.670545 -0.225439 0.706786
vn 0.622066 -0.321117 0.714085
vn 0.342451 -0.558150 0.755775
vn -0.048634 -0.670459 0.740351
vn -0.481763 -0.423435 0.767207
vn -0.692435 -0.102016 0.714231
vn -0.643967 0.176357 0.744449
vn -0.545002 0.430962 0.719197
vn -0.514364 0.488670 0.704721
vn -0.522632 0.505656 0.686417
vn -0.670974 0.431392 0.603072
vn -0.019008 -0.778600 0.627233
vn 0.037974 -0.714624 0.698477
vn -0.015026 -0.712285 0.701730
vn 0.021681 -0.707234 0.706647
vn 0.947897 -0.318577 0.000004
vn 0.888844 -0.458210 0.000002
vn 0.523142 -0.852245 0.000000
vn -0.072183 -0.997391 0.000000
vn -0.751426 -0.659817 0.000000
vn -0.989355 -0.145520 -0.000000
vn -0.964479 0.264160 -0.000001
vn -0.784261 0.620432 -0.000000
vn -0.724976 0.688774 0.000000
vn -0.719066 0.694942 0.000000
vn -0.842909 0.538056 0.000001
vn -0.025764 -0.999668 -0.000000
vn 0.052827 -0.998604 0.000000
vn -0.021086 -0.999778 0.000000
vn 0.030628 -0.999531 0.000000
s 1
g vaccuumtube_two1 vaccuum_tube_numbers_1 vaccuum_tube_assembly_1 time_lord_assembly
usemtl initialShadingGroup
f 1/1/1 16/16/2 17/17/3 2/2/4
f 2/2/4 17/17/3 18/18/5 3/3/6
f 3/3/6 18/18/5 19/19/7 4/4/8
f 4/4/8 19/19/7 20/20/9 5/5/10
f 5/5/10 20/20/9 21/21/11 6/6/12
f 6/6/12 21/21/11 22/22/13 7/7/14
f 7/7/14 22/22/13 23/23/15 8/8/16
f 8/8/16 23/23/15 24/24/17 9/9/18
f 9/9/18 24/24/17 25/25/19 10/10/20
f 10/10/20 25/25/19 26/26/21 11/11/22
f 11/11/22 26/26/21 27/27/23 12/12/24
f 12/12/24 27/27/23 28/28/25 13/13/26
f 13/13/26 28/28/25 29/29/27 14/14/28
f 14/14/28 29/29/27 30/30/29 15/15/30
f 16/16/2 31/31/31 32/32/32 17/17/3
f 17/17/3 32/32/32 33/33/33 18/18/5
f 18/18/5 33/33/33 34/34/34 19/19/7
f 19/19/7 34/34/34 35/35/35 20/20/9
f 20/20/9 35/35/35 36/36/36 21/21/11
f 21/21/11 36/36/36 37/37/37 22/22/13
f 22/22/13 37/37/37 38/38/38 23/23/15
f 23/23/15 38/38/38 39/39/39 24/24/17
f 24/24/17 39/39/39 40/40/40 25/25/19
f 25/25/19 40/40/40 41/41/41 26/26/21
f 26/26/21 41/41/41 42/42/42 27/27/23
f 27/27/23 42/42/42 43/43/43 28/28/25
f 28/28/25 43/43/43 44/44/44 29/29/27
f 29/29/27 44/44/44 45/45/45 30/30/29
f 31/31/31 46/46/46 47/47/47 32/32/32
f 32/32/32 47/47/47 48/48/48 33/33/33
f 33/33/33 48/48/48 49/49/49 34/34/34
f 34/34/34 49/49/49 50/50/50 35/35/35
f 35/35/35 50/50/50 51/51/51 36/36/36
f 36/36/36 51/51/51 52/52/52 37/37/37
f 37/37/37 52/52/52 53/53/53 38/38/38
f 38/38/38 53/53/53 54/54/54 39/39/39
f 39/39/39 54/54/54 55/55/55 40/40/40
f 40/40/40 55/55/55 56/56/56 41/41/41
f 41/41/41 56/56/56 57/57/57 42/42/42
f 42/42/42 57/57/57 58/58/58 43/43/43
f 43/43/43 58/58/58 59/59/59 44/44/44
f 44/44/44 59/59/59 60/60/60 45/45/45
f 46/46/46 61/61/61 62/62/62 47/47/47
f 47/47/47 62/62/62 63/63/63 48/48/48
f 48/48/48 63/63/63 64/64/64 49/49/49
f 49/49/49 64/64/64 65/65/65 50/50/50
f 50/50/50 65/65/65 66/66/66 51/51/51
f 51/51/51 66/66/66 67/67/67 52/52/52
f 52/52/52 67/67/67 68/68/68 53/53/53
f 53/53/53 68/68/68 69/69/69 54/54/54
f 54/54/54 69/69/69 70/70/70 55/55/55
f 55/55/55 70/70/70 71/71/71 56/56/56
f 56/56/56 71/71/71 72/72/72 57/57/57
f 57/57/57 72/72/72 73/73/73 58/58/58
f 58/58/58 73/73/73 74/74/74 59/59/59
f 59/59/59 74/74/74 75/75/75 60/60/60
f 61/61/61 76/76/76 77/77/77 62/62/62
f 62/62/62 77/77/77 78/78/78 63/63/63
f 63/63/63 78/78/78 79/79/79 64/64/64
f 64/64/64 79/79/79 80/80/80 65/65/65
f 65/65/65 80/80/80 81/81/81 66/66/66
f 66/66/66 81/81/81 82/82/82 67/67/67
f 67/67/67 82/82/82 83/83/83 68/68/68
f 68/68/68 83/83/83 84/84/84 69/69/69
f 69/69/69 84/84/84 85/85/85 70/70/70
f 70/70/70 85/85/85 86/86/86 71/71/71
f 71/71/71 86/86/86 87/87/87 72/72/72
f 72/72/72 87/87/87 88/88/88 73/73/73
f 73/73/73 88/88/88 89/89/89 74/74/74
f 74/74/74 89/89/89 90/90/90 75/75/75
f 76/76/76 91/91/91 92/92/92 77/77/77
f 77/77/77 92/92/92 93/93/93 78/78/78
f 78/78/78 93/93/93 94/94/94 79/79/79
f 79/79/79 94/94/94 95/95/95 80/80/80
f 80/80/80 95/95/95 96/96/96 81/81/81
f 81/81/81 96/96/96 97/97/97 82/82/82
f 82/82/82 97/97/97 98/98/98 83/83/83
f 83/83/83 98/98/98 99/99/99 84/84/84
f 84/84/84 99/99/99 100/100/100 85/85/85
f 85/85/85 100/100/100 101/101/101 86/86/86
f 86/86/86 101/101/101 102/102/102 87/87/87
f 87/87/87 102/102/102 103/103/103 88/88/88
f 88/88/88 103/103/103 104/104/104 89/89/89
f 89/89/89 104/104/104 105/105/105 90/90/90
f 91/91/91 106/106/106 107/107/107 92/92/92
f 92/92/92 107/107/107 108/108/108 93/93/93
f 93/93/93 108/108/108 109/109/109 94/94/94
f 94/94/94 109/109/109 110/110/110 95/95/95
f 95/95/95 110/110/110 111/111/111 96/96/96
f 96/96/96 111/111/111 112/112/112 97/97/97
f 97/97/97 112/112/112 113/113/113 98/98/98
f 98/98/98 113/113/113 114/114/114 99/99/99
f 99/99/99 114/114/114 115/115/115 100/100/100
f 100/100/100 115/115/115 116/116/116 101/101/101
f 101/101/101 116/116/116 117/117/117 102/102/102
f 102/102/102 117/117/117 118/118/118 103/103/103
f 103/103/103 118/118/118 119/119/119 104/104/104
f 104/104/104 119/119/119 120/120/120 105/105/105
f 106/106/106 1/1/1 2/2/4 107/107/107
f 107/107/107 2/2/4 3/3/6 108/108/108
f 108/108/108 3/3/6 4/4/8 109/109/109
f 109/109/109 4/4/8 5/5/10 110/110/110
f 110/110/110 5/5/10 6/6/12 111/111/111
f 111/111/111 6/6/12 7/7/14 112/112/112
f 112/112/112 7/7/14 8/8/16 113/113/113
f 113/113/113 8/8/16 9/9/18 114/114/114
f 114/114/114 9/9/18 10/10/20 115/115/115
f 115/115/115 10/10/20 11/11/22 116/116/116
f 116/116/116 11/11/22 12/12/24 117/117/117
f 117/117/117 12/12/24 13/13/26 118/118/118
f 118/118/118 13/13/26 14/14/28 119/119/119
f 119/119/119 14/14/28 15/15/30 120/120/120
