# author: headus 3D tools
#  using: ply2obj v1.8
#   from: uvlayout v2.09.03
mtllib two_out.mtl
# 120 vertices
v -5.4610000 3.4020000 1.3220000
v -5.4278870 3.5004909 1.3220000
v -5.3156754 3.6835458 1.3220000
v -4.9916950 3.7681258 1.3220000
v -4.6898633 3.6381619 1.3220000
v -4.5978312 3.3199372 1.3220000
v -4.5962820 3.0029131 1.3220000
v -4.7566262 2.7401078 1.3220000
v -5.0008341 2.4913219 1.3220000
v -5.2520152 2.2186700 1.3220000
v -5.5081162 1.9670059 1.3220000
v -5.4573661 1.9007219 1.3220000
v -4.8619152 1.9517178 1.3220000
v -4.6813050 1.9419539 1.3220000
v -4.5662542 1.9454807 1.3220000
v -5.4684272 3.4045010 1.3187540
v -5.4349824 3.5038178 1.3187540
v -5.3203364 3.6898449 1.3187540
v -4.9911013 3.7759400 1.3187540
v -4.6839891 3.6433490 1.3187540
v -4.5900760 3.3210600 1.3187540
v -4.5887332 3.0008119 1.3187540
v -4.7504430 2.7352939 1.3187540
v -4.9951554 2.4859229 1.3187540
v -5.2464014 2.2132039 1.3187540
v -5.5002971 1.9664829 1.3187540
v -5.4542514 1.9079120 1.3187540
v -4.8620444 1.9595530 1.3187540
v -4.6812144 1.9497888 1.3187540
v -4.5664950 1.9533129 1.3187540
v -5.4758530 3.4070020 1.3220000
v -5.4420763 3.5071459 1.3220000
v -5.3249980 3.6961428 1.3220000
v -4.9905072 3.7837529 1.3220000
v -4.6781164 3.6485360 1.3220000
v -4.5823212 3.3221839 1.3220000
v -4.5811840 2.9987109 1.3220000
v -4.7442604 2.7304800 1.3220000
v -4.9894763 2.4805229 1.3220000
v -5.2407871 2.2077372 1.3220000
v -5.4924784 1.9659597 1.3220000
v -5.4511362 1.9151028 1.3220000
v -4.8621741 1.9673881 1.3220000
v -4.6811243 1.9576249 1.3220000
v -4.5667363 1.9611459 1.3220000
v -5.4789290 3.4080379 1.3298359
v -5.4450150 3.5085239 1.3298359
v -5.3269292 3.6987519 1.3298359
v -4.9902602 3.7869900 1.3298359
v -4.6756831 3.6506848 1.3298359
v -4.5791092 3.3226491 1.3298359
v -4.5780574 2.9978409 1.3298359
v -4.7416993 2.7284859 1.3298359
v -4.9871240 2.4782870 1.3298359
v -5.2384611 2.2054720 1.3298359
v -5.4892402 1.9657439 1.3298359
v -5.4498464 1.9180812 1.3298359
v -4.8622270 1.9706328 1.3298359
v -4.6810851 1.9608707 1.3298359
v -4.5668350 1.9643899 1.3298359
v -5.4758530 3.4070020 1.3376719
v -5.4420763 3.5071459 1.3376719
v -5.3249980 3.6961428 1.3376719
v -4.9905072 3.7837529 1.3376719
v -4.6781164 3.6485360 1.3376719
v -4.5823212 3.3221839 1.3376719
v -4.5811840 2.9987109 1.3376719
v -4.7442604 2.7304800 1.3376719
v -4.9894763 2.4805229 1.3376719
v -5.2407871 2.2077372 1.3376719
v -5.4924784 1.9659597 1.3376719
v -5.4511362 1.9151028 1.3376719
v -4.8621741 1.9673881 1.3376719
v -4.6811243 1.9576249 1.3376719
v -4.5667363 1.9611459 1.3376719
v -5.4684272 3.4045010 1.3409179
v -5.4349824 3.5038178 1.3409179
v -5.3203364 3.6898449 1.3409179
v -4.9911013 3.7759400 1.3409179
v -4.6839891 3.6433490 1.3409179
v -4.5900760 3.3210600 1.3409179
v -4.5887332 3.0008119 1.3409179
v -4.7504430 2.7352939 1.3409179
v -4.9951554 2.4859229 1.3409179
v -5.2464014 2.2132039 1.3409179
v -5.5002971 1.9664829 1.3409179
v -5.4542514 1.9079120 1.3409179
v -4.8620444 1.9595530 1.3409179
v -4.6812144 1.9497888 1.3409179
v -4.5664950 1.9533129 1.3409179
v -5.4610000 3.4020000 1.3376719
v -5.4278870 3.5004909 1.3376719
v -5.3156754 3.6835458 1.3376719
v -4.9916950 3.7681258 1.3376719
v -4.6898633 3.6381619 1.3376719
v -4.5978312 3.3199372 1.3376719
v -4.5962820 3.0029131 1.3376719
v -4.7566262 2.7401078 1.3376719
v -5.0008341 2.4913219 1.3376719
v -5.2520152 2.2186700 1.3376719
v -5.5081162 1.9670059 1.3376719
v -5.4573661 1.9007219 1.3376719
v -4.8619152 1.9517178 1.3376719
v -4.6813050 1.9419539 1.3376719
v -4.5662542 1.9454807 1.3376719
v -5.4579245 3.4009639 1.3298359
v -5.4249493 3.4991119 1.3298359
v -5.3137441 3.6809368 1.3298359
v -4.9919410 3.7648900 1.3298359
v -4.6922961 3.6360140 1.3298359
v -4.6010442 3.3194710 1.3298359
v -4.5994091 3.0037831 1.3298359
v -4.7591882 2.7421020 1.3298359
v -5.0031863 2.4935590 1.3298359
v -5.2543412 2.2209349 1.3298359
v -5.5113540 1.9672218 1.3298359
v -5.4586564 1.8977428 1.3298359
v -4.8618613 1.9484719 1.3298359
v -4.6813431 1.9387079 1.3298359
v -4.5661550 1.9422358 1.3298359
# 120 normals
vn 0.670482 -0.225417 -0.706769
vn -0.001556 0.000580 -0.999969
vn -0.027559 0.014771 -0.999481
vn 0.621986 -0.321095 -0.714063
vn -0.049045 0.080114 -0.995544
vn 0.342428 -0.558140 -0.755753
vn 0.006226 0.084630 -0.996307
vn -0.048556 -0.670390 -0.740280
vn 0.078832 0.069951 -0.994354
vn -0.481688 -0.423427 -0.767198
vn 0.036959 0.005616 -0.999298
vn -0.692425 -0.101996 -0.714216
vn 0.065403 -0.017854 -0.997681
vn -0.643960 0.176280 -0.744369
vn 0.022981 -0.017915 -0.999573
vn -0.544925 0.430873 -0.719130
vn -0.002533 0.002411 -0.999969
vn -0.514283 0.488586 -0.704694
vn 0.003601 -0.004273 -0.999969
vn -0.522615 0.505646 -0.686352
vn -0.148965 0.095343 -0.984191
vn -0.670970 0.431362 -0.603064
vn -0.004029 -0.125130 -0.992095
vn -0.018953 -0.778581 -0.627144
vn -0.001068 0.017060 -0.999847
vn 0.037936 -0.714613 -0.698468
vn -0.000153 -0.010316 -0.999939
vn -0.014955 -0.712263 -0.701642
vn 0.000000 -0.000519 -1.000000
vn 0.021638 -0.707166 -0.706617
vn -0.671916 0.226576 -0.705030
vn -0.647348 0.337789 -0.683147
vn -0.392266 0.640450 -0.660166
vn 0.055393 0.752823 -0.655771
vn 0.563419 0.498321 -0.658762
vn 0.727431 0.108527 -0.677440
vn 0.710950 -0.194500 -0.675761
vn 0.568425 -0.447903 -0.689984
vn 0.511750 -0.486114 -0.708295
vn 0.523775 -0.511994 -0.680706
vn 0.509614 -0.364433 -0.779314
vn -0.000916 0.662028 -0.749435
vn -0.040347 0.730513 -0.681621
vn 0.014741 0.701825 -0.712110
vn -0.021699 0.706617 -0.707166
vn -0.947446 0.319630 0.000000
vn -0.886376 0.462888 0.000000
vn -0.522310 0.852683 0.000000
vn 0.073460 0.997284 0.000000
vn 0.748886 0.662547 0.000000
vn 0.988952 0.147623 0.000000
vn 0.964506 -0.263902 0.000000
vn 0.785509 -0.618751 0.000000
vn 0.724989 -0.688671 0.000000
vn 0.714735 -0.699322 0.000000
vn 0.808979 -0.587713 0.000000
vn -0.005371 0.999969 0.000000
vn -0.055271 0.998382 0.000000
vn 0.021089 0.999756 0.000000
vn -0.030733 0.999512 0.000000
vn -0.671885 0.226576 0.705030
vn -0.647348 0.337789 0.683147
vn -0.392297 0.640450 0.660166
vn 0.055393 0.752823 0.655771
vn 0.563419 0.498321 0.658762
vn 0.727431 0.108527 0.677471
vn 0.710950 -0.194500 0.675761
vn 0.568425 -0.447903 0.689984
vn 0.511750 -0.486114 0.708295
vn 0.523744 -0.511994 0.680706
vn 0.509614 -0.364433 0.779314
vn -0.000916 0.662028 0.749435
vn -0.040347 0.730513 0.681621
vn 0.014741 0.701825 0.712110
vn -0.021699 0.706617 0.707166
vn -0.001556 0.000580 0.999969
vn -0.027559 0.014771 0.999481
vn -0.049045 0.080114 0.995544
vn 0.006226 0.084630 0.996307
vn 0.078832 0.069951 0.994354
vn 0.036959 0.005616 0.999298
vn 0.065403 -0.017854 0.997681
vn 0.023042 -0.017915 0.999573
vn -0.002533 0.002411 0.999969
vn 0.003601 -0.004273 0.999969
vn -0.148965 0.095343 0.984191
vn -0.004029 -0.125130 0.992095
vn -0.001068 0.017060 0.999847
vn -0.000153 -0.010316 0.999939
vn 0.000000 -0.000519 1.000000
vn 0.670482 -0.225417 0.706769
vn 0.621986 -0.321095 0.714063
vn 0.342428 -0.558140 0.755753
vn -0.048556 -0.670390 0.740280
vn -0.481688 -0.423427 0.767198
vn -0.692425 -0.101996 0.714216
vn -0.643960 0.176280 0.744369
vn -0.544925 0.430873 0.719130
vn -0.514283 0.488586 0.704694
vn -0.522615 0.505646 0.686352
vn -0.670970 0.431362 0.603064
vn -0.018953 -0.778581 0.627144
vn 0.037936 -0.714613 0.698468
vn -0.014955 -0.712263 0.701642
vn 0.021638 -0.707166 0.706617
vn 0.947812 -0.318501 0.000000
vn 0.888757 -0.458127 0.000000
vn 0.523134 -0.852164 0.000000
vn -0.072178 -0.997375 0.000000
vn -0.751419 -0.659800 0.000000
vn -0.989349 -0.145486 0.000000
vn -0.964475 0.264085 0.000000
vn -0.784258 0.620430 0.000000
vn -0.724898 0.688763 0.000000
vn -0.718977 0.694928 0.000000
vn -0.842886 0.537966 0.000000
vn -0.025728 -0.999664 0.000000
vn 0.052799 -0.998535 0.000000
vn -0.021028 -0.999756 0.000000
vn 0.030611 -0.999512 0.000000
# 150 uv coords
vt 0.018907 0.888265
vt 0.014740 0.810868
vt 0.072522 0.704728
vt 0.171973 0.640021
vt 0.291448 0.643646
vt 0.401924 0.673181
vt 0.494285 0.734830
vt 0.586283 0.820289
vt 0.690410 0.903723
vt 0.788725 0.987115
vt 0.816721 0.977764
vt 0.923122 0.791118
vt 0.958559 0.736514
vt 0.015883 0.888729
vt 0.011724 0.810214
vt 0.070226 0.702647
vt 0.171126 0.637027
vt 0.291860 0.640586
vt 0.403180 0.670349
vt 0.496223 0.732443
vt 0.588312 0.818020
vt 0.692442 0.901439
vt 0.789343 0.984123
vt 0.814712 0.975455
vt 0.920499 0.789554
vt 0.955974 0.734898
vt 0.012861 0.889195
vt 0.008712 0.809563
vt 0.067928 0.700566
vt 0.170280 0.634037
vt 0.292273 0.637520
vt 0.404433 0.667523
vt 0.498162 0.730057
vt 0.590343 0.815750
vt 0.694465 0.899157
vt 0.789968 0.981124
vt 0.812709 0.973141
vt 0.917884 0.787995
vt 0.953385 0.733281
vt 0.011137 0.138313
vt 0.008693 0.218020
vt 0.070227 0.325737
vt 0.174550 0.389155
vt 0.296234 0.379669
vt 0.407008 0.344882
vt 0.497804 0.278155
vt 0.586244 0.188600
vt 0.686860 0.100980
vt 0.778368 0.014556
vt 0.801610 0.020961
vt 0.923058 0.195852
vt 0.960399 0.249305
vt 0.014169 0.138708
vt 0.011683 0.217294
vt 0.072453 0.323595
vt 0.175284 0.386146
vt 0.295694 0.376628
vt 0.405633 0.342111
vt 0.495765 0.275861
vt 0.584111 0.186423
vt 0.684729 0.098798
vt 0.777570 0.011580
vt 0.803462 0.018532
vt 0.925574 0.194143
vt 0.962898 0.247554
vt 0.017203 0.139101
vt 0.014675 0.216565
vt 0.074679 0.321454
vt 0.176018 0.383132
vt 0.295156 0.373591
vt 0.404255 0.339336
vt 0.493726 0.273565
vt 0.581982 0.184250
vt 0.682589 0.096614
vt 0.776782 0.008611
vt 0.805323 0.016110
vt 0.928096 0.192431
vt 0.965393 0.245803
vt 0.688919 0.103225
vt 0.588347 0.190809
vt 0.499804 0.280465
vt 0.579882 0.182044
vt 0.680527 0.094359
vt 0.779076 0.017410
vt 0.408379 0.347618
vt 0.491725 0.271253
vt 0.776068 0.005764
vt 0.799869 0.023387
vt 0.296784 0.382677
vt 0.402882 0.336595
vt 0.807051 0.013674
vt 0.920563 0.197599
vt 0.173833 0.392088
vt 0.294604 0.370588
vt 0.930597 0.190678
vt 0.985140 0.282349
vt 0.982575 0.284009
vt 0.957878 0.251026
vt 0.068056 0.327843
vt 0.176733 0.380195
vt 0.967913 0.244083
vt 0.987704 0.280689
vt 0.980008 0.285661
vt 0.005764 0.218755
vt 0.076849 0.319348
vt 0.990270 0.279036
vt 0.018710 0.101115
vt 0.021699 0.101760
vt 0.008109 0.137965
vt 0.017609 0.215832
vt 0.024677 0.102402
vt 0.015715 0.100505
vt 0.020231 0.139451
vt 0.027663 0.103010
vt 0.592346 0.813453
vt 0.696420 0.896819
vt 0.500059 0.727660
vt 0.790507 0.978253
vt 0.405682 0.664730
vt 0.810800 0.970849
vt 0.292691 0.634490
vt 0.915286 0.786402
vt 0.688455 0.906070
vt 0.584280 0.822586
vt 0.169449 0.631124
vt 0.492388 0.737228
vt 0.950786 0.731678
vt 0.788176 0.989981
vt 0.065695 0.698516
vt 0.400672 0.675979
vt 0.971272 0.696044
vt 0.973916 0.697571
vt 0.818611 0.980068
vt 0.005764 0.808895
vt 0.291029 0.646671
vt 0.976562 0.699099
vt 0.925727 0.792719
vt 0.009841 0.889612
vt 0.172802 0.642937
vt 0.979208 0.700628
vt 0.961154 0.738115
vt 0.021287 0.926209
vt 0.018307 0.926888
vt 0.074754 0.706777
vt 0.981853 0.702157
vt 0.024260 0.925495
vt 0.017692 0.811534
vt 0.027223 0.924784
vt 0.021927 0.887846
vt 0.030193 0.924107
# 112 polygons
usemtl initialShadingGroup
s 1
g time_lord_assembly vaccuum_tube_assembly_1 vaccuum_tube_numbers_1 vaccuumtube_two1
f 1/148/1 16/146/2 17/14/3 2/1/4
f 2/1/4 17/14/3 18/15/5 3/2/6
f 3/2/6 18/15/5 19/16/7 4/3/8
f 4/3/8 19/16/7 20/17/9 5/4/10
f 5/4/10 20/17/9 21/18/11 6/5/12
f 6/5/12 21/18/11 22/19/13 7/6/14
f 7/6/14 22/19/13 23/20/15 8/7/16
f 8/7/16 23/20/15 24/21/17 9/8/18
f 9/8/18 24/21/17 25/22/19 10/9/20
f 10/9/20 25/22/19 26/23/21 11/10/22
f 11/10/22 26/23/21 27/24/23 12/11/24
f 12/11/24 27/24/23 28/25/25 13/12/26
f 13/12/26 28/25/25 29/26/27 14/13/28
f 14/13/28 29/26/27 30/136/29 15/140/30
f 16/146/2 31/142/31 32/27/32 17/14/3
f 17/14/3 32/27/32 33/28/33 18/15/5
f 18/15/5 33/28/33 34/29/34 19/16/7
f 19/16/7 34/29/34 35/30/35 20/17/9
f 20/17/9 35/30/35 36/31/36 21/18/11
f 21/18/11 36/31/36 37/32/37 22/19/13
f 22/19/13 37/32/37 38/33/38 23/20/15
f 23/20/15 38/33/38 39/34/39 24/21/17
f 24/21/17 39/34/39 40/35/40 25/22/19
f 25/22/19 40/35/40 41/36/41 26/23/21
f 26/23/21 41/36/41 42/37/42 27/24/23
f 27/24/23 42/37/42 43/38/43 28/25/25
f 28/25/25 43/38/43 44/39/44 29/26/27
f 29/26/27 44/39/44 45/132/45 30/136/29
f 31/142/31 46/143/46 47/138/47 32/27/32
f 32/27/32 47/138/47 48/134/48 33/28/33
f 33/28/33 48/134/48 49/129/49 34/29/34
f 34/29/34 49/129/49 50/125/50 35/30/35
f 35/30/35 50/125/50 51/121/51 36/31/36
f 36/31/36 51/121/51 52/119/52 37/32/37
f 37/32/37 52/119/52 53/117/53 38/33/38
f 38/33/38 53/117/53 54/115/54 39/34/39
f 39/34/39 54/115/54 55/116/55 40/35/40
f 40/35/40 55/116/55 56/118/56 41/36/41
f 41/36/41 56/118/56 57/120/57 42/37/42
f 42/37/42 57/120/57 58/122/58 43/38/43
f 43/38/43 58/122/58 59/127/59 44/39/44
f 44/39/44 59/127/59 60/131/60 45/132/45
f 46/112/46 61/107/61 62/40/62 47/109/47
f 47/109/47 62/40/62 63/41/63 48/104/48
f 48/104/48 63/41/63 64/42/64 49/99/49
f 49/99/49 64/42/64 65/43/65 50/93/50
f 50/93/50 65/43/65 66/44/66 51/89/51
f 51/89/51 66/44/66 67/45/67 52/85/52
f 52/85/52 67/45/67 68/46/68 53/81/53
f 53/81/53 68/46/68 69/47/69 54/80/54
f 54/80/54 69/47/69 70/48/70 55/79/55
f 55/79/55 70/48/70 71/49/71 56/84/56
f 56/84/56 71/49/71 72/50/72 57/88/57
f 57/88/57 72/50/72 73/51/73 58/92/58
f 58/92/58 73/51/73 74/52/74 59/98/59
f 59/98/59 74/52/74 75/97/75 60/103/60
f 61/107/61 76/108/76 77/53/77 62/40/62
f 62/40/62 77/53/77 78/54/78 63/41/63
f 63/41/63 78/54/78 79/55/79 64/42/64
f 64/42/64 79/55/79 80/56/80 65/43/65
f 65/43/65 80/56/80 81/57/81 66/44/66
f 66/44/66 81/57/81 82/58/82 67/45/67
f 67/45/67 82/58/82 83/59/83 68/46/68
f 68/46/68 83/59/83 84/60/84 69/47/69
f 69/47/69 84/60/84 85/61/85 70/48/70
f 70/48/70 85/61/85 86/62/86 71/49/71
f 71/49/71 86/62/86 87/63/87 72/50/72
f 72/50/72 87/63/87 88/64/88 73/51/73
f 73/51/73 88/64/88 89/65/89 74/52/74
f 74/52/74 89/65/89 90/96/90 75/97/75
f 76/108/76 91/111/91 92/66/92 77/53/77
f 77/53/77 92/66/92 93/67/93 78/54/78
f 78/54/78 93/67/93 94/68/94 79/55/79
f 79/55/79 94/68/94 95/69/95 80/56/80
f 80/56/80 95/69/95 96/70/96 81/57/81
f 81/57/81 96/70/96 97/71/97 82/58/82
f 82/58/82 97/71/97 98/72/98 83/59/83
f 83/59/83 98/72/98 99/73/99 84/60/84
f 84/60/84 99/73/99 100/74/100 85/61/85
f 85/61/85 100/74/100 101/75/101 86/62/86
f 86/62/86 101/75/101 102/76/102 87/63/87
f 87/63/87 102/76/102 103/77/103 88/64/88
f 88/64/88 103/77/103 104/78/104 89/65/89
f 89/65/89 104/78/104 105/102/105 90/96/90
f 91/111/91 106/114/106 107/113/107 92/66/92
f 92/66/92 107/113/107 108/110/108 93/67/93
f 93/67/93 108/110/108 109/105/109 94/68/94
f 94/68/94 109/105/109 110/100/110 95/69/95
f 95/69/95 110/100/110 111/94/111 96/70/96
f 96/70/96 111/94/111 112/90/112 97/71/97
f 97/71/97 112/90/112 113/86/113 98/72/98
f 98/72/98 113/86/113 114/82/114 99/73/99
f 99/73/99 114/82/114 115/83/115 100/74/100
f 100/74/100 115/83/115 116/87/116 101/75/101
f 101/75/101 116/87/116 117/91/117 102/76/102
f 102/76/102 117/91/117 118/95/118 103/77/103
f 103/77/103 118/95/118 119/101/119 104/78/104
f 104/78/104 119/101/119 120/106/120 105/102/105
f 106/150/106 1/148/1 2/1/4 107/149/107
f 107/149/107 2/1/4 3/2/6 108/147/108
f 108/147/108 3/2/6 4/3/8 109/144/109
f 109/144/109 4/3/8 5/4/10 110/139/110
f 110/139/110 5/4/10 6/5/12 111/135/111
f 111/135/111 6/5/12 7/6/14 112/130/112
f 112/130/112 7/6/14 8/7/16 113/126/113
f 113/126/113 8/7/16 9/8/18 114/124/114
f 114/124/114 9/8/18 10/9/20 115/123/115
f 115/123/115 10/9/20 11/10/22 116/128/116
f 116/128/116 11/10/22 12/11/24 117/133/117
f 117/133/117 12/11/24 13/12/26 118/137/118
f 118/137/118 13/12/26 14/13/28 119/141/119
f 119/141/119 14/13/28 15/140/30 120/145/120
