# This file uses centimeters as units for non-parametric coordinates.

mtllib zero_out.mtl
g default
v -5.016070 1.977364 1.121228
v -5.135413 1.986817 1.121228
v -5.369412 2.008555 1.121228
v -5.527531 2.274094 1.121228
v -5.578192 2.582174 1.121936
v -5.562058 2.822479 1.123032
v -5.551871 3.107435 1.123032
v -5.524889 3.390990 1.123032
v -5.388610 3.696737 1.123032
v -5.078683 3.829572 1.123032
v -4.746834 3.750562 1.123032
v -4.563796 3.459569 1.123032
v -4.553982 3.158706 1.123032
v -4.533701 2.875909 1.123032
v -4.512845 2.633497 1.121936
v -4.541914 2.323190 1.121228
v -4.713318 2.056207 1.121228
v -4.911107 2.006555 1.121228
v -5.016232 1.978190 1.121228
v -5.018372 1.968838 1.117235
v -5.138490 1.978331 1.117235
v -5.375871 2.001293 1.117235
v -5.536189 2.270677 1.117235
v -5.586860 2.580619 1.118237
v -5.569890 2.822208 1.119786
v -5.559314 3.108627 1.119786
v -5.532209 3.393478 1.119786
v -5.393980 3.702202 1.119786
v -5.078711 3.837366 1.119786
v -4.742827 3.756623 1.119786
v -4.556349 3.461461 1.119786
v -4.546406 3.159109 1.119786
v -4.525867 2.875742 1.119786
v -4.504093 2.632672 1.118237
v -4.532773 2.320398 1.117235
v -4.706262 2.049422 1.117235
v -4.906540 1.998638 1.117235
v -5.012388 1.970131 1.117235
v -5.020604 1.960312 1.121228
v -5.141368 1.969878 1.121228
v -5.382329 1.993936 1.121228
v -5.544764 2.267261 1.121228
v -5.595479 2.579064 1.121936
v -5.577721 2.821937 1.123032
v -5.566724 3.109818 1.123032
v -5.539530 3.395739 1.123032
v -5.399350 3.707572 1.123032
v -5.078463 3.845160 1.123032
v -4.738961 3.762591 1.123032
v -4.548903 3.463127 1.123032
v -4.538972 3.159493 1.123032
v -4.518033 2.875576 1.123032
v -4.495491 2.631847 1.121936
v -4.523633 2.317607 1.121228
v -4.699205 2.042608 1.121228
v -4.901974 1.990679 1.121228
v -5.008543 1.962072 1.121228
v -5.021386 1.956781 1.130868
v -5.142363 1.966452 1.130868
v -5.385004 1.990941 1.130868
v -5.548234 2.265846 1.130868
v -5.599047 2.578421 1.130868
v -5.580965 2.821825 1.130868
v -5.569700 3.110312 1.130868
v -5.542562 3.396462 1.130868
v -5.401574 3.709701 1.130868
v -5.078077 3.848388 1.130868
v -4.737504 3.764970 1.130868
v -4.545818 3.463596 1.130868
v -4.536036 3.159636 1.130868
v -4.514788 2.875507 1.130868
v -4.491946 2.631505 1.130868
v -4.519847 2.316450 1.130868
v -4.696282 2.039681 1.130868
v -4.900082 1.987399 1.130868
v -5.006950 1.958735 1.130868
v -5.020523 1.960313 1.140508
v -5.141368 1.969878 1.140508
v -5.382329 1.994035 1.140508
v -5.544764 2.267261 1.140508
v -5.595479 2.579064 1.139799
v -5.577721 2.821937 1.138704
v -5.566724 3.109818 1.138704
v -5.539530 3.395739 1.138704
v -5.399350 3.707572 1.138704
v -5.078463 3.845160 1.138704
v -4.738961 3.762591 1.138704
v -4.548903 3.463127 1.138704
v -4.538972 3.159493 1.138704
v -4.518033 2.875576 1.138704
v -4.495491 2.631847 1.139799
v -4.523633 2.317607 1.140508
v -4.699205 2.042543 1.140508
v -4.901974 1.990679 1.140508
v -5.008543 1.962072 1.140508
v -5.018372 1.968838 1.144501
v -5.138490 1.978331 1.144501
v -5.375871 2.001293 1.144501
v -5.536189 2.270677 1.144501
v -5.586860 2.580619 1.143499
v -5.569890 2.822208 1.141950
v -5.559314 3.108627 1.141950
v -5.532209 3.393478 1.141950
v -5.393980 3.702202 1.141950
v -5.078711 3.837366 1.141950
v -4.742827 3.756623 1.141950
v -4.556349 3.461461 1.141950
v -4.546406 3.159109 1.141950
v -4.525867 2.875742 1.141950
v -4.504093 2.632672 1.143499
v -4.532773 2.320398 1.144501
v -4.706262 2.049422 1.144501
v -4.906540 1.998638 1.144501
v -5.012388 1.970131 1.144501
v -5.016070 1.977364 1.140508
v -5.135413 1.986817 1.140508
v -5.369412 2.008555 1.140508
v -5.527531 2.274094 1.140508
v -5.578192 2.582174 1.139799
v -5.562058 2.822479 1.138704
v -5.551871 3.107435 1.138704
v -5.524889 3.390990 1.138704
v -5.388610 3.696737 1.138704
v -5.078683 3.829572 1.138704
v -4.746834 3.750562 1.138704
v -4.563796 3.459569 1.138704
v -4.553982 3.158706 1.138704
v -4.533701 2.875909 1.138704
v -4.512845 2.633497 1.139799
v -4.541914 2.323190 1.140508
v -4.713318 2.056207 1.140508
v -4.911107 2.006555 1.140508
v -5.016232 1.978190 1.140508
v -5.015123 1.980896 1.130868
v -5.134104 1.990302 1.130868
v -5.366737 2.011560 1.130868
v -5.523933 2.275509 1.130868
v -5.574552 2.582818 1.130868
v -5.558814 2.822591 1.130868
v -5.548785 3.106942 1.130868
v -5.521856 3.389909 1.130868
v -5.386385 3.694454 1.130868
v -5.078583 3.826344 1.130868
v -4.748517 3.748034 1.130868
v -4.566881 3.458737 1.130868
v -4.557160 3.158537 1.130868
v -4.536946 2.875978 1.130868
v -4.516623 2.633839 1.130868
v -4.545701 2.324347 1.130868
v -4.716241 2.059001 1.130868
v -4.912998 2.009792 1.130868
v -5.017825 1.981528 1.130868
vt -1.000000 0.000000
vt -1.000000 0.020833
vt -1.000000 0.062500
vt -1.000000 0.125000
vt -1.000000 0.187500
vt -1.000000 0.250000
vt -1.000000 0.312500
vt -1.000000 0.375000
vt -1.000000 0.437500
vt -1.000000 0.500000
vt -1.000000 0.562500
vt -1.000000 0.625000
vt -1.000000 0.687500
vt -1.000000 0.750000
vt -1.000000 0.812500
vt -1.000000 0.875000
vt -1.000000 0.937500
vt -1.000000 0.979167
vt -1.000000 1.000000
vt 0.000000 0.000000
vt 0.000000 0.020833
vt 0.000000 0.062500
vt 0.000000 0.125000
vt 0.000000 0.187500
vt 0.000000 0.250000
vt 0.000000 0.312500
vt 0.000000 0.375000
vt 0.000000 0.437500
vt 0.000000 0.500000
vt 0.000000 0.562500
vt 0.000000 0.625000
vt 0.000000 0.687500
vt 0.000000 0.750000
vt 0.000000 0.812500
vt 0.000000 0.875000
vt 0.000000 0.937500
vt 0.000000 0.979167
vt 0.000000 1.000000
vt 1.000000 0.000000
vt 1.000000 0.020833
vt 1.000000 0.062500
vt 1.000000 0.125000
vt 1.000000 0.187500
vt 1.000000 0.250000
vt 1.000000 0.312500
vt 1.000000 0.375000
vt 1.000000 0.437500
vt 1.000000 0.500000
vt 1.000000 0.562500
vt 1.000000 0.625000
vt 1.000000 0.687500
vt 1.000000 0.750000
vt 1.000000 0.812500
vt 1.000000 0.875000
vt 1.000000 0.937500
vt 1.000000 0.979167
vt 1.000000 1.000000
vt 2.000000 0.000000
vt 2.000000 0.020833
vt 2.000000 0.062500
vt 2.000000 0.125000
vt 2.000000 0.187500
vt 2.000000 0.250000
vt 2.000000 0.312500
vt 2.000000 0.375000
vt 2.000000 0.437500
vt 2.000000 0.500000
vt 2.000000 0.562500
vt 2.000000 0.625000
vt 2.000000 0.687500
vt 2.000000 0.750000
vt 2.000000 0.812500
vt 2.000000 0.875000
vt 2.000000 0.937500
vt 2.000000 0.979167
vt 2.000000 1.000000
vt 3.000000 0.000000
vt 3.000000 0.020833
vt 3.000000 0.062500
vt 3.000000 0.125000
vt 3.000000 0.187500
vt 3.000000 0.250000
vt 3.000000 0.312500
vt 3.000000 0.375000
vt 3.000000 0.437500
vt 3.000000 0.500000
vt 3.000000 0.562500
vt 3.000000 0.625000
vt 3.000000 0.687500
vt 3.000000 0.750000
vt 3.000000 0.812500
vt 3.000000 0.875000
vt 3.000000 0.937500
vt 3.000000 0.979167
vt 3.000000 1.000000
vt 4.000000 0.000000
vt 4.000000 0.020833
vt 4.000000 0.062500
vt 4.000000 0.125000
vt 4.000000 0.187500
vt 4.000000 0.250000
vt 4.000000 0.312500
vt 4.000000 0.375000
vt 4.000000 0.437500
vt 4.000000 0.500000
vt 4.000000 0.562500
vt 4.000000 0.625000
vt 4.000000 0.687500
vt 4.000000 0.750000
vt 4.000000 0.812500
vt 4.000000 0.875000
vt 4.000000 0.937500
vt 4.000000 0.979167
vt 4.000000 1.000000
vt 5.000000 0.000000
vt 5.000000 0.020833
vt 5.000000 0.062500
vt 5.000000 0.125000
vt 5.000000 0.187500
vt 5.000000 0.250000
vt 5.000000 0.312500
vt 5.000000 0.375000
vt 5.000000 0.437500
vt 5.000000 0.500000
vt 5.000000 0.562500
vt 5.000000 0.625000
vt 5.000000 0.687500
vt 5.000000 0.750000
vt 5.000000 0.812500
vt 5.000000 0.875000
vt 5.000000 0.937500
vt 5.000000 0.979167
vt 5.000000 1.000000
vt 6.000000 0.000000
vt 6.000000 0.020833
vt 6.000000 0.062500
vt 6.000000 0.125000
vt 6.000000 0.187500
vt 6.000000 0.250000
vt 6.000000 0.312500
vt 6.000000 0.375000
vt 6.000000 0.437500
vt 6.000000 0.500000
vt 6.000000 0.562500
vt 6.000000 0.625000
vt 6.000000 0.687500
vt 6.000000 0.750000
vt 6.000000 0.812500
vt 6.000000 0.875000
vt 6.000000 0.937500
vt 6.000000 0.979167
vt 6.000000 1.000000
vn 0.060195 0.760775 -0.646218
vn 0.003685 0.046596 -0.998907
vn 0.001549 0.017313 -0.999849
vn 0.066803 0.757519 -0.649386
vn -0.048801 -0.096580 -0.994128
vn 0.381346 0.521637 -0.763197
vn -0.046275 -0.014236 -0.998827
vn 0.648843 0.239649 -0.722199
vn -0.025108 0.006281 -0.999665
vn 0.701826 0.050626 -0.710547
vn 0.001621 0.002591 -0.999995
vn 0.715575 -0.034767 -0.697670
vn -0.008289 -0.000004 -0.999966
vn 0.712634 -0.046589 -0.699987
vn -0.040501 0.009218 -0.999137
vn 0.674563 -0.187161 -0.714098
vn -0.064701 0.067209 -0.995639
vn 0.464181 -0.472594 -0.749127
vn -0.015083 0.082604 -0.996468
vn 0.058066 -0.678424 -0.732372
vn 0.060765 0.076958 -0.995181
vn -0.391400 -0.544070 -0.742155
vn 0.065960 0.026884 -0.997460
vn -0.656141 -0.214404 -0.723540
vn -0.004219 -0.000116 -0.999991
vn -0.717333 -0.036987 -0.695748
vn -0.000375 0.002803 -0.999996
vn -0.710511 -0.054313 -0.701587
vn 0.019854 0.006051 -0.999785
vn -0.701455 0.015911 -0.712536
vn 0.056356 -0.020404 -0.998202
vn -0.636294 0.225119 -0.737869
vn 0.041870 -0.072461 -0.996492
vn -0.432385 0.504530 -0.747324
vn -0.004621 0.020940 -0.999770
vn -0.188066 0.730370 -0.656652
vn -0.012188 0.044706 -0.998926
vn -0.197594 0.732692 -0.651244
vn -0.057601 -0.725214 -0.686110
vn -0.069374 -0.745634 -0.662734
vn -0.449636 -0.609696 -0.652762
vn -0.695623 -0.255354 -0.671494
vn -0.729282 -0.045660 -0.682688
vn -0.715919 0.040816 -0.696989
vn -0.723269 0.048155 -0.688885
vn -0.715875 0.201832 -0.668421
vn -0.530885 0.546157 -0.647977
vn -0.067011 0.761916 -0.644200
vn 0.451128 0.623736 -0.638308
vn 0.725523 0.242976 -0.643878
vn 0.719687 0.037809 -0.693269
vn 0.715982 0.060864 -0.695460
vn 0.726026 -0.008537 -0.687615
vn 0.695604 -0.243300 -0.675974
vn 0.488079 -0.563244 -0.666735
vn 0.184911 -0.710739 -0.678718
vn 0.186227 -0.693575 -0.695897
vn -0.079305 -0.996850 0.001115
vn -0.093490 -0.995619 0.001840
vn -0.608529 -0.793531 0.001430
vn -0.937838 -0.347074 0.000672
vn -0.997685 -0.068010 -0.000001
vn -0.998431 0.056005 0.000000
vn -0.997741 0.067174 0.000001
vn -0.963164 0.268914 0.000003
vn -0.699723 0.714414 0.000003
vn -0.066190 0.997807 0.000000
vn 0.580313 0.814393 0.000000
vn 0.952048 0.305950 0.000001
vn 0.998616 0.052603 0.000001
vn 0.996495 0.083652 0.000001
vn 0.999879 -0.015531 0.000001
vn 0.944387 -0.328835 -0.000478
vn 0.665737 -0.746186 -0.000898
vn 0.251697 -0.967805 -0.001131
vn 0.259161 -0.965834 0.000000
vn -0.057576 -0.725157 0.686172
vn -0.069481 -0.745771 0.662569
vn -0.450377 -0.608674 0.653205
vn -0.695577 -0.255361 0.671539
vn -0.729280 -0.045660 0.682691
vn -0.715918 0.040816 0.696990
vn -0.723272 0.048155 0.688882
vn -0.715874 0.201831 0.668423
vn -0.530879 0.546158 0.647981
vn -0.067007 0.761916 0.644200
vn 0.451124 0.623738 0.638309
vn 0.725522 0.242977 0.643879
vn 0.719689 0.037809 0.693266
vn 0.715983 0.060864 0.695460
vn 0.726024 -0.008537 0.687616
vn 0.695659 -0.243305 0.675915
vn 0.487709 -0.563821 0.666518
vn 0.184811 -0.710639 0.678850
vn 0.186228 -0.693575 0.695897
vn 0.003584 0.045230 0.998970
vn 0.001525 0.017311 0.999849
vn -0.048530 -0.096941 0.994106
vn -0.046291 -0.014247 0.998827
vn -0.025112 0.006281 0.999665
vn 0.001617 0.002591 0.999995
vn -0.008289 -0.000004 0.999966
vn -0.040498 0.009218 0.999137
vn -0.064698 0.067209 0.995639
vn -0.015084 0.082604 0.996468
vn 0.060765 0.076958 0.995181
vn 0.065959 0.026884 0.997460
vn -0.004220 -0.000116 0.999991
vn -0.000375 0.002803 0.999996
vn 0.019858 0.006051 0.999785
vn 0.056340 -0.020391 0.998203
vn 0.042057 -0.072314 0.996495
vn -0.004637 0.020920 0.999770
vn -0.012189 0.044706 0.998926
vn 0.060195 0.760775 0.646218
vn 0.066804 0.757519 0.649386
vn 0.381349 0.521637 0.763196
vn 0.648844 0.239648 0.722198
vn 0.701825 0.050626 0.710548
vn 0.715574 -0.034768 0.697671
vn 0.712636 -0.046588 0.699986
vn 0.674566 -0.187160 0.714096
vn 0.464179 -0.472594 0.749128
vn 0.058064 -0.678424 0.732372
vn -0.391398 -0.544070 0.742156
vn -0.656139 -0.214404 0.723541
vn -0.717333 -0.036987 0.695748
vn -0.710512 -0.054313 0.701586
vn -0.701453 0.015911 0.712538
vn -0.636295 0.225119 0.737869
vn -0.432391 0.504529 0.747321
vn -0.188068 0.730369 0.656651
vn -0.197597 0.732692 0.651244
vn 0.078880 0.996884 0.000000
vn 0.087042 0.996205 -0.000000
vn 0.577413 0.816452 -0.000000
vn 0.938782 0.344512 0.000000
vn 0.997799 0.066306 0.000001
vn 0.998782 -0.049344 0.000001
vn 0.997919 -0.064476 -0.000000
vn 0.964628 -0.263617 -0.000001
vn 0.701639 -0.712532 -0.000000
vn 0.087546 -0.996161 -0.000000
vn -0.585758 -0.810486 -0.000000
vn -0.950366 -0.311133 -0.000000
vn -0.998678 -0.051401 -0.000000
vn -0.997017 -0.077185 -0.000000
vn -0.999825 0.018699 0.000001
vn -0.942429 0.334406 0.000001
vn -0.639415 0.768861 0.000000
vn -0.249617 0.968345 -0.000000
vn -0.260418 0.965496 -0.000000
s 1
g vaccuumtube_zero1 vaccuum_tube_numbers_1 vaccuum_tube_assembly_1 time_lord_assembly
usemtl initialShadingGroup
f 1/1/1 20/20/2 21/21/3 2/2/4
f 2/2/4 21/21/3 22/22/5 3/3/6
f 3/3/6 22/22/5 23/23/7 4/4/8
f 4/4/8 23/23/7 24/24/9 5/5/10
f 5/5/10 24/24/9 25/25/11 6/6/12
f 6/6/12 25/25/11 26/26/13 7/7/14
f 7/7/14 26/26/13 27/27/15 8/8/16
f 8/8/16 27/27/15 28/28/17 9/9/18
f 9/9/18 28/28/17 29/29/19 10/10/20
f 10/10/20 29/29/19 30/30/21 11/11/22
f 11/11/22 30/30/21 31/31/23 12/12/24
f 12/12/24 31/31/23 32/32/25 13/13/26
f 13/13/26 32/32/25 33/33/27 14/14/28
f 14/14/28 33/33/27 34/34/29 15/15/30
f 15/15/30 34/34/29 35/35/31 16/16/32
f 16/16/32 35/35/31 36/36/33 17/17/34
f 17/17/34 36/36/33 37/37/35 18/18/36
f 18/18/36 37/37/35 38/38/37 19/19/38
f 20/20/2 39/39/39 40/40/40 21/21/3
f 21/21/3 40/40/40 41/41/41 22/22/5
f 22/22/5 41/41/41 42/42/42 23/23/7
f 23/23/7 42/42/42 43/43/43 24/24/9
f 24/24/9 43/43/43 44/44/44 25/25/11
f 25/25/11 44/44/44 45/45/45 26/26/13
f 26/26/13 45/45/45 46/46/46 27/27/15
f 27/27/15 46/46/46 47/47/47 28/28/17
f 28/28/17 47/47/47 48/48/48 29/29/19
f 29/29/19 48/48/48 49/49/49 30/30/21
f 30/30/21 49/49/49 50/50/50 31/31/23
f 31/31/23 50/50/50 51/51/51 32/32/25
f 32/32/25 51/51/51 52/52/52 33/33/27
f 33/33/27 52/52/52 53/53/53 34/34/29
f 34/34/29 53/53/53 54/54/54 35/35/31
f 35/35/31 54/54/54 55/55/55 36/36/33
f 36/36/33 55/55/55 56/56/56 37/37/35
f 37/37/35 56/56/56 57/57/57 38/38/37
f 39/39/39 58/58/58 59/59/59 40/40/40
f 40/40/40 59/59/59 60/60/60 41/41/41
f 41/41/41 60/60/60 61/61/61 42/42/42
f 42/42/42 61/61/61 62/62/62 43/43/43
f 43/43/43 62/62/62 63/63/63 44/44/44
f 44/44/44 63/63/63 64/64/64 45/45/45
f 45/45/45 64/64/64 65/65/65 46/46/46
f 46/46/46 65/65/65 66/66/66 47/47/47
f 47/47/47 66/66/66 67/67/67 48/48/48
f 48/48/48 67/67/67 68/68/68 49/49/49
f 49/49/49 68/68/68 69/69/69 50/50/50
f 50/50/50 69/69/69 70/70/70 51/51/51
f 51/51/51 70/70/70 71/71/71 52/52/52
f 52/52/52 71/71/71 72/72/72 53/53/53
f 53/53/53 72/72/72 73/73/73 54/54/54
f 54/54/54 73/73/73 74/74/74 55/55/55
f 55/55/55 74/74/74 75/75/75 56/56/56
f 56/56/56 75/75/75 76/76/76 57/57/57
f 58/58/58 77/77/77 78/78/78 59/59/59
f 59/59/59 78/78/78 79/79/79 60/60/60
f 60/60/60 79/79/79 80/80/80 61/61/61
f 61/61/61 80/80/80 81/81/81 62/62/62
f 62/62/62 81/81/81 82/82/82 63/63/63
f 63/63/63 82/82/82 83/83/83 64/64/64
f 64/64/64 83/83/83 84/84/84 65/65/65
f 65/65/65 84/84/84 85/85/85 66/66/66
f 66/66/66 85/85/85 86/86/86 67/67/67
f 67/67/67 86/86/86 87/87/87 68/68/68
f 68/68/68 87/87/87 88/88/88 69/69/69
f 69/69/69 88/88/88 89/89/89 70/70/70
f 70/70/70 89/89/89 90/90/90 71/71/71
f 71/71/71 90/90/90 91/91/91 72/72/72
f 72/72/72 91/91/91 92/92/92 73/73/73
f 73/73/73 92/92/92 93/93/93 74/74/74
f 74/74/74 93/93/93 94/94/94 75/75/75
f 75/75/75 94/94/94 95/95/95 76/76/76
f 77/77/77 96/96/96 97/97/97 78/78/78
f 78/78/78 97/97/97 98/98/98 79/79/79
f 79/79/79 98/98/98 99/99/99 80/80/80
f 80/80/80 99/99/99 100/100/100 81/81/81
f 81/81/81 100/100/100 101/101/101 82/82/82
f 82/82/82 101/101/101 102/102/102 83/83/83
f 83/83/83 102/102/102 103/103/103 84/84/84
f 84/84/84 103/103/103 104/104/104 85/85/85
f 85/85/85 104/104/104 105/105/105 86/86/86
f 86/86/86 105/105/105 106/106/106 87/87/87
f 87/87/87 106/106/106 107/107/107 88/88/88
f 88/88/88 107/107/107 108/108/108 89/89/89
f 89/89/89 108/108/108 109/109/109 90/90/90
f 90/90/90 109/109/109 110/110/110 91/91/91
f 91/91/91 110/110/110 111/111/111 92/92/92
f 92/92/92 111/111/111 112/112/112 93/93/93
f 93/93/93 112/112/112 113/113/113 94/94/94
f 94/94/94 113/113/113 114/114/114 95/95/95
f 96/96/96 115/115/115 116/116/116 97/97/97
f 97/97/97 116/116/116 117/117/117 98/98/98
f 98/98/98 117/117/117 118/118/118 99/99/99
f 99/99/99 118/118/118 119/119/119 100/100/100
f 100/100/100 119/119/119 120/120/120 101/101/101
f 101/101/101 120/120/120 121/121/121 102/102/102
f 102/102/102 121/121/121 122/122/122 103/103/103
f 103/103/103 122/122/122 123/123/123 104/104/104
f 104/104/104 123/123/123 124/124/124 105/105/105
f 105/105/105 124/124/124 125/125/125 106/106/106
f 106/106/106 125/125/125 126/126/126 107/107/107
f 107/107/107 126/126/126 127/127/127 108/108/108
f 108/108/108 127/127/127 128/128/128 109/109/109
f 109/109/109 128/128/128 129/129/129 110/110/110
f 110/110/110 129/129/129 130/130/130 111/111/111
f 111/111/111 130/130/130 131/131/131 112/112/112
f 112/112/112 131/131/131 132/132/132 113/113/113
f 113/113/113 132/132/132 133/133/133 114/114/114
f 115/115/115 134/134/134 135/135/135 116/116/116
f 116/116/116 135/135/135 136/136/136 117/117/117
f 117/117/117 136/136/136 137/137/137 118/118/118
f 118/118/118 137/137/137 138/138/138 119/119/119
f 119/119/119 138/138/138 139/139/139 120/120/120
f 120/120/120 139/139/139 140/140/140 121/121/121
f 121/121/121 140/140/140 141/141/141 122/122/122
f 122/122/122 141/141/141 142/142/142 123/123/123
f 123/123/123 142/142/142 143/143/143 124/124/124
f 124/124/124 143/143/143 144/144/144 125/125/125
f 125/125/125 144/144/144 145/145/145 126/126/126
f 126/126/126 145/145/145 146/146/146 127/127/127
f 127/127/127 146/146/146 147/147/147 128/128/128
f 128/128/128 147/147/147 148/148/148 129/129/129
f 129/129/129 148/148/148 149/149/149 130/130/130
f 130/130/130 149/149/149 150/150/150 131/131/131
f 131/131/131 150/150/150 151/151/151 132/132/132
f 132/132/132 151/151/151 152/152/152 133/133/133
f 134/134/134 1/1/1 2/2/4 135/135/135
f 135/135/135 2/2/4 3/3/6 136/136/136
f 136/136/136 3/3/6 4/4/8 137/137/137
f 137/137/137 4/4/8 5/5/10 138/138/138
f 138/138/138 5/5/10 6/6/12 139/139/139
f 139/139/139 6/6/12 7/7/14 140/140/140
f 140/140/140 7/7/14 8/8/16 141/141/141
f 141/141/141 8/8/16 9/9/18 142/142/142
f 142/142/142 9/9/18 10/10/20 143/143/143
f 143/143/143 10/10/20 11/11/22 144/144/144
f 144/144/144 11/11/22 12/12/24 145/145/145
f 145/145/145 12/12/24 13/13/26 146/146/146
f 146/146/146 13/13/26 14/14/28 147/147/147
f 147/147/147 14/14/28 15/15/30 148/148/148
f 148/148/148 15/15/30 16/16/32 149/149/149
f 149/149/149 16/16/32 17/17/34 150/150/150
f 150/150/150 17/17/34 18/18/36 151/151/151
f 151/151/151 18/18/36 19/19/38 152/152/152
